<?xml version="1.0" standalone="no"?>
<!DOCTYPE svg PUBLIC "-//W3C//DTD SVG 1.1//EN" "http://www.w3.org/Graphics/SVG/1.1/DTD/svg11.dtd" >
<svg>
<metadata>
Created by FontForge 20090622 at Fri Oct 27 07:08:30 2017
 By deploy user
DSE LardPhrao &#194;&#169; Dusit Supasawat 1998. All Rights Reserved
</metadata>
<defs>
<font id="DSELardPhrao" horiz-adv-x="0" >
  <font-face 
    font-family="DSE LardPhrao"
    font-weight="400"
    font-stretch="normal"
    units-per-em="2048"
    panose-1="0 0 4 0 0 0 0 0 0 0"
    ascent="1638"
    descent="-410"
    x-height="704"
    cap-height="981"
    bbox="-839 -602 1620 1700"
    underline-thickness="100"
    underline-position="-150"
    unicode-range="U+0020-U+F71D"
  />
<missing-glyph horiz-adv-x="1024" 
d="M128 0v1700h768v-1700h-768zM256 128h512v1444h-512v-1444z" />
    <glyph glyph-name=".notdef" horiz-adv-x="1024" 
d="M128 0v1700h768v-1700h-768zM256 128h512v1444h-512v-1444z" />
    <glyph glyph-name=".null" 
 />
    <glyph glyph-name="nonmarkingreturn" horiz-adv-x="455" 
 />
    <glyph glyph-name="space" unicode=" " horiz-adv-x="455" 
 />
    <glyph glyph-name="exclam" unicode="!" horiz-adv-x="613" 
d="M221 0v167h171v-167h-171zM265 275l-68 706h219l-68 -706h-83z" />
    <glyph glyph-name="quotedbl" unicode="&#x22;" horiz-adv-x="554" 
d="M167 549h-83l90 432h131zM380 549h-81l89 432h131z" />
    <glyph glyph-name="numbersign" unicode="#" horiz-adv-x="918" 
d="M318 240l-55 -233h-125l53 233h-155l36 127h149l44 190h-166l36 128h160l67 288h127l-67 -288h176l68 288h125l-68 -288h159l-36 -128h-151l-45 -190h175l-35 -127h-168l-55 -233h-128l55 233h-176zM348 367h177l42 190h-175z" />
    <glyph glyph-name="dollar" unicode="$" horiz-adv-x="920" 
d="M817 747l-151 -30q-19 49 -39 71q-35 40 -100 48v-251q321 -49 321 -303q0 -133 -96 -214q-90 -78 -225 -78v-131h-109v131q-30 0 -75 11q-222 55 -271 268l155 34q48 -168 191 -168v279q-48 10 -142 43q-166 82 -166 247q0 125 93 203q88 74 215 74v88h109v-92
q22 0 58 -10q170 -48 232 -220zM283 723q0 -62 53 -93q26 -15 82 -27v238q-135 0 -135 -118zM681 275q0 57 -59 95q-49 31 -95 31v-272q154 25 154 146z" />
    <glyph glyph-name="percent" unicode="%" horiz-adv-x="1310" 
d="M120 728q0 110 56 189q62 88 168 88q111 0 172 -86q55 -76 55 -191q0 -110 -57 -184q-63 -82 -170 -82q-109 0 -170 81q-54 73 -54 185zM914 986h108l-621 -986h-109zM738 246q0 112 56 190q62 89 170 89q111 0 173 -87q54 -76 54 -192q0 -108 -58 -183q-64 -82 -169 -82
q-109 0 -170 80q-56 73 -56 185zM964 88q57 0 78 53q14 35 14 107q0 75 -14 112q-21 56 -78 56q-91 0 -91 -168q0 -73 12 -106q20 -54 79 -54zM344 569q59 0 80 52q14 34 14 107q0 166 -94 166q-91 0 -91 -166q0 -73 12 -105q20 -54 79 -54z" />
    <glyph glyph-name="ampersand" unicode="&#x26;" horiz-adv-x="1145" 
d="M755 759q0 -77 -65 -142q-52 -52 -119 -76l219 -227q78 90 115 289l147 -18q5 -56 -44 -178q-53 -132 -119 -200q53 -67 129 -67h31v-147q-18 -5 -56 -5q-63 0 -90 14q-62 32 -125 91q-147 -118 -329 -118q-154 0 -256 81q-112 87 -112 237q0 102 92 191q73 71 154 96
q-88 103 -88 201q0 102 87 161q76 51 183 51q103 0 174.5 -66t71.5 -168zM491 647q43 22 60 34q35 25 44 52q6 19 6 38q0 85 -92 85q-100 0 -100 -89q0 -37 39 -82q20 -24 43 -38zM677 203l-255 272q-61 -21 -100 -69q-42 -51 -42 -112q0 -100 93 -143q45 -21 99 -21
q125 0 205 73z" />
    <glyph glyph-name="quotesingle" unicode="'" horiz-adv-x="339" 
d="M167 549h-83l90 432h131z" />
    <glyph glyph-name="parenleft" unicode="(" horiz-adv-x="509" 
d="M243 458q0 -330 179 -628h-108q-230 309 -230 628q0 216 128 429q45 74 119 167h108q-196 -303 -196 -596z" />
    <glyph glyph-name="parenright" unicode=")" horiz-adv-x="509" 
d="M72 1054h106q153 -184 210 -366q36 -114 36 -230q0 -325 -227 -628h-106q178 305 178 628q0 294 -197 596z" />
    <glyph glyph-name="asterisk" unicode="*" horiz-adv-x="652" 
d="M372 772l191 79l44 -123l-217 -36l155 -162l-106 -73l-116 184l-100 -185l-108 76l140 153l-213 51l42 117l199 -85l-26 213h131z" />
    <glyph glyph-name="plus" unicode="+" horiz-adv-x="981" 
d="M413 757h154v-290h308v-141h-308v-290h-154v290h-307v141h307v290z" />
    <glyph glyph-name="comma" unicode="," horiz-adv-x="384" 
d="M160 -213h-79l98 213h-73v167h172v-160z" />
    <glyph glyph-name="hyphen" unicode="-" horiz-adv-x="656" 
d="M25 439h607v-113h-607v113z" />
    <glyph glyph-name="hyphen" unicode="&#x2010;" horiz-adv-x="656" 
d="M25 439h607v-113h-607v113z" />
    <glyph glyph-name="period" unicode="." horiz-adv-x="307" 
d="M68 0v167h172v-167h-172z" />
    <glyph glyph-name="slash" unicode="/" horiz-adv-x="546" 
d="M219 -36h-128l236 1017h129z" />
    <glyph glyph-name="zero" unicode="0" horiz-adv-x="850" 
d="M32 484q0 205 100 351q111 162 292 162q199 0 304 -162q89 -138 89 -351q0 -205 -92 -341q-106 -158 -301 -158q-198 0 -302 157q-90 134 -90 342zM424 127q201 0 201 357q0 174 -35 257q-46 110 -166 110q-199 0 -199 -367q0 -357 199 -357z" />
    <glyph glyph-name="one" unicode="1" horiz-adv-x="850" 
d="M147 663v144q71 9 145 52q88 51 132 125q39 3 68 3q30 0 53 -3v-837h175v-147h-546v147h189v578q-103 -62 -216 -62z" />
    <glyph glyph-name="two" unicode="2" horiz-adv-x="850" 
d="M343 363l121 83q137 105 137 215q0 76 -48.5 124.5t-124.5 48.5q-82 0 -135.5 -61t-53.5 -144l-180 43q24 143 126.5 232t247.5 89q161 0 260 -83q105 -89 105 -246q0 -153 -152 -275q-41 -33 -139 -97q-58 -38 -175 -100q-43 -23 -54 -32h519v-160h-738v177l100 64z" />
    <glyph glyph-name="three" unicode="3" horiz-adv-x="850" 
d="M424 841q-135 0 -187 -138l-169 31q41 121 139 188q95 66 225 66q132 0 232 -69q114 -78 114 -204q0 -155 -173 -211q85 -12 143.5 -78t58.5 -152q0 -142 -117 -221q-102 -68 -250 -68q-144 0 -249 63q-118 71 -150 203l171 42q7 -56 59 -104q65 -60 162 -60
q182 0 182 151q0 91 -85 124q-62 24 -211 24v139q133 0 183 16q95 30 95 128q0 65 -56 100q-48 30 -117 30z" />
    <glyph glyph-name="four" unicode="4" horiz-adv-x="850" 
d="M672 373h133v-160h-133v-213h-179v213h-434v131l427 640h186v-611zM498 771l-258 -400h258v400z" />
    <glyph glyph-name="five" unicode="5" horiz-adv-x="850" 
d="M728 816h-448l-25 -265q100 90 218 90q134 0 229.5 -89.5t95.5 -222.5q0 -155 -109 -252q-104 -92 -261 -92q-136 0 -241 69q-116 75 -137 203l167 23q36 -149 209 -149q80 0 132 58q49 56 49 137q0 76 -52.5 128.5t-128.5 52.5q-123 0 -175 -111l-158 39l61 546h592z
" />
    <glyph glyph-name="six" unicode="6" horiz-adv-x="850" 
d="M473 638q144 0 242.5 -91.5t98.5 -234.5q0 -136 -107 -233q-103 -94 -240 -94q-225 0 -335 151q-96 132 -96 365q0 205 98 348q109 158 290 158q295 0 361 -250l-160 -29q-27 78 -67.5 109t-120.5 31q-96 0 -158 -109q-53 -94 -53 -202q0 -20 3 -38q97 119 244 119z
M253 307q0 -81 52.5 -132t133.5 -51q82 0 137 51t55 132q0 88 -51.5 137.5t-140.5 49.5q-83 0 -134.5 -52t-51.5 -135z" />
    <glyph glyph-name="seven" unicode="7" horiz-adv-x="850" 
d="M78 816l17 165h669v-135q-151 -191 -218 -372q-76 -205 -76 -474h-199q0 222 102 453q89 202 234 363h-529z" />
    <glyph glyph-name="eight" unicode="8" horiz-adv-x="850" 
d="M759 746q0 -85 -57 -146q-33 -36 -99 -73q195 -96 195 -244q0 -146 -123 -227q-105 -69 -259 -69q-144 0 -245 59q-123 71 -123 205q0 80 59 145q52 57 133 87q-159 82 -159 237q0 135 109 209q95 64 236 64q134 0 224 -55q109 -66 109 -192zM416 124q199 0 199 129
q0 55 -55 93q-18 12 -193 78q-145 -68 -145 -157q0 -143 194 -143zM426 864q-69 0 -114 -28q-55 -34 -55 -99q0 -64 77 -105q20 -11 141 -52q124 51 124 152q0 65 -56 101q-48 31 -117 31z" />
    <glyph glyph-name="nine" unicode="9" horiz-adv-x="850" 
d="M379 362q-149 0 -243 88q-97 91 -97 239q0 132 109 226q104 90 238 90q426 0 426 -505q0 -187 -96 -336q-110 -171 -288 -171q-117 0 -210 45q-111 54 -138 155l151 47q12 -51 74 -78q50 -22 111 -22q100 0 158 114q49 96 49 210v19q-1 8 -1 11q-85 -132 -243 -132z
M597 695q0 73 -56 121t-130 48q-83 0 -134 -43q-55 -45 -55 -126q0 -188 191 -188q80 0 132 54t52 134z" />
    <glyph glyph-name="colon" unicode=":" horiz-adv-x="384" 
d="M106 0v167h172v-167h-172zM106 539v165h172v-165h-172z" />
    <glyph glyph-name="semicolon" unicode=";" horiz-adv-x="384" 
d="M106 539v165h172v-165h-172zM160 -213h-79l98 213h-73v167h172v-160z" />
    <glyph glyph-name="less" unicode="&#x3c;" horiz-adv-x="880" 
d="M106 358v133l668 253v-112l-503 -194l503 -194v-138z" />
    <glyph glyph-name="equal" unicode="=" horiz-adv-x="966" 
d="M120 289h726v-126h-726v126zM120 571h726v-126h-726v126z" />
    <glyph glyph-name="greater" unicode="&#x3e;" horiz-adv-x="880" 
d="M106 106v138l503 194l-503 194v112l668 -253v-133z" />
    <glyph glyph-name="question" unicode="?" horiz-adv-x="920" 
d="M553 534q113 84 113 168q0 140 -141 140q-78 0 -125 -63q-42 -57 -42 -138l-161 28q0 139 105 235q103 93 243 93q125 0 217 -77q97 -82 97 -205q0 -89 -57 -163q-38 -49 -110 -103l-60 -40q-24 -20 -27 -66l-4 -54h-137l-6 82q-4 50 32 101q22 32 63 62zM452 0v177h173
v-177h-173z" />
    <glyph glyph-name="at" unicode="@" horiz-adv-x="1104" 
d="M1037 445q-32 -104 -123 -186q-97 -87 -201 -87q-27 0 -54 8q-21 6 -32 31q-4 9 -12 46q-91 -74 -174 -74q-99 0 -136 76q-21 42 -21 100q0 89 45 177q119 232 286 232h26q6 -1 12 -3l5 -1q35 -8 61 -35l38 -48l30 63h107l-162 -396q-20 -49 -20 -74q0 -23 28 -28
q6 -1 15 -1q98 0 176 124q69 112 69 216q0 144 -116 239q-108 90 -255 90h-25q-10 -2 -15 -2q-186 -18 -322 -154q-140 -140 -140 -325q0 -178 128 -278q117 -92 300 -92q134 0 245 48q50 21 132 77l39 -28q-201 -164 -417 -164q-203 0 -352 111q-163 122 -163 319
q0 200 153 370q167 185 399 185q191 0 323 -101q145 -111 145 -296q0 -68 -22 -139zM639 718q-54 0 -116 -70q-53 -61 -90 -144q-51 -116 -51 -185q0 -59 44 -75q24 -10 47 -10q70 0 128 98q9 16 53 105q62 127 62 196q0 28 -10 48q-20 37 -67 37z" />
    <glyph glyph-name="A" unicode="A" horiz-adv-x="886" 
d="M864 0h-195l-80 229h-338l-76 -229h-153l317 981h202zM292 372h257l-127 406z" />
    <glyph glyph-name="B" unicode="B" horiz-adv-x="859" 
d="M389 981q125 0 191 -13q185 -36 214 -221q3 -19 3 -39q0 -88 -66 -145q-30 -26 -102 -59q89 -21 145 -83q60 -66 60 -154q0 -15 -1 -24q-28 -243 -345 -243h-427v981h328zM447 566q158 0 158 145q0 117 -168 117h-194v-262h204zM243 423v-276h215q179 0 179 143
q0 68 -56 103q-47 30 -119 30h-219z" />
    <glyph glyph-name="C" unicode="C" horiz-adv-x="875" 
d="M841 647l-174 -18q-32 219 -220 219q-214 0 -214 -350q0 -355 234 -355q89 0 144 57q51 54 61 144l172 -18q-27 -160 -130 -250.5t-264 -90.5q-203 0 -318 161q-103 143 -103 354q0 208 104 346q115 154 316 154q164 0 268 -96q100 -93 124 -257z" />
    <glyph glyph-name="D" unicode="D" horiz-adv-x="877" 
d="M333 0h-272v981h268q149 0 237 -34q121 -47 201 -169t80 -288q0 -115 -47 -225q-113 -265 -467 -265zM634 380q13 55 13 108q0 140 -65 225q-49 64 -87 85q-49 27 -149 28q-6 0 -15 1h-12q-38 0 -61 -3q-8 0 -15 -2v-670h86q104 0 163 30q106 55 142 198z" />
    <glyph glyph-name="E" unicode="E" horiz-adv-x="721" 
d="M698 0h-637v981h637v-145h-455v-273h366v-145h-366v-272h455v-146z" />
    <glyph glyph-name="F" unicode="F" horiz-adv-x="711" 
d="M61 0v981h637v-145h-455v-273h366v-145h-366v-418h-182z" />
    <glyph glyph-name="G" unicode="G" horiz-adv-x="898" 
d="M717 126q-93 -142 -267 -142q-207 0 -321 160q-100 141 -100 356q0 202 106 343q117 157 312 157q326 0 409 -312l-173 -25q-12 83 -68 133t-139 50h-14q-10 -2 -15 -2q-216 -24 -216 -346q0 -362 236 -362q94 0 154 63q57 60 65 156h-213v147h389v-502h-92z" />
    <glyph glyph-name="H" unicode="H" horiz-adv-x="842" 
d="M243 418v-418h-182v981h182v-418h356v418h184v-981h-184v418h-356z" />
    <glyph glyph-name="I" unicode="I" horiz-adv-x="303" 
d="M61 981h182v-981h-182v981z" />
    <glyph glyph-name="J" unicode="J" horiz-adv-x="507" 
d="M179 -25q-7 0 -19.5 -1t-19.5 -1q-62 0 -140 23v148q36 -9 146 -9q89 0 117 60q17 36 17 129v657h182v-705q0 -154 -62 -225q-68 -76 -221 -76z" />
    <glyph glyph-name="K" unicode="K" horiz-adv-x="860" 
d="M650 981h186l-265 -338l282 -643h-204l-210 488l-196 -244v-244h-182v981h182v-525z" />
    <glyph glyph-name="L" unicode="L" horiz-adv-x="658" 
d="M61 0v981h182v-825h400v-156h-582z" />
    <glyph glyph-name="M" unicode="M" horiz-adv-x="1114" 
d="M1054 981v-981h-183v844l-282 -844h-100l-280 844v-844h-148v981h285l213 -642l213 642h282z" />
    <glyph glyph-name="N" unicode="N" horiz-adv-x="841" 
d="M633 297v684h148v-981h-150l-422 720v-720h-148v981h190z" />
    <glyph glyph-name="O" unicode="O" horiz-adv-x="923" 
d="M32 493q0 204 111 346q121 154 319 154q204 0 323 -159q106 -141 106 -341q0 -207 -108 -353q-120 -162 -321 -162q-213 0 -328 156q-102 139 -102 359zM462 129q230 0 230 364q0 349 -230 349q-229 0 -229 -349q0 -364 229 -364z" />
    <glyph glyph-name="P" unicode="P" horiz-adv-x="834" 
d="M61 0v981h328q416 0 416 -329q0 -137 -106 -210q-93 -65 -235 -65h-221v-377h-182zM447 532q166 0 166 144q0 141 -176 141h-194v-285h204z" />
    <glyph glyph-name="Q" unicode="Q" horiz-adv-x="923" 
d="M726 -45q23 -3 44 -3q48 0 71 7v-149q-90 -7 -106 -7q-87 0 -140 36q-67 45 -67 146q-39 -7 -66 -7q-213 0 -328 156q-102 139 -102 359q0 204 111 345q121 153 319 153q204 0 323 -158q106 -141 106 -340q0 -146 -53 -264q-61 -135 -177 -197q0 -35 4 -47q7 -23 61 -30z
M462 131q232 0 232 362q0 349 -232 349q-229 0 -229 -349q0 -362 229 -362z" />
    <glyph glyph-name="R" unicode="R" horiz-adv-x="833" 
d="M807 0h-196l-161 389h-207v-389h-182v981h328q418 0 418 -329q0 -160 -176 -230zM447 535q73 0 122 33q55 38 55 108q0 143 -187 143h-194v-284h204z" />
    <glyph glyph-name="S" unicode="S" horiz-adv-x="830" 
d="M755 772l-158 -42q-49 112 -179 112q-161 0 -161 -119q0 -62 74 -97q31 -15 138 -39q98 -22 161 -50q172 -75 172 -254q0 -148 -127 -229q-107 -69 -264 -69q-139 0 -239 60q-112 67 -143 194l164 37q40 -138 218 -138q204 0 204 136q0 81 -146 121l-232 62
q-87 42 -125 97.5t-38 149.5q0 131 106 211q96 73 231 73q119 0 210 -52q101 -58 134 -164z" />
    <glyph glyph-name="T" unicode="T" horiz-adv-x="736" 
d="M458 825v-825h-182v825h-254v156h691v-156h-255z" />
    <glyph glyph-name="U" unicode="U" horiz-adv-x="833" 
d="M418 -13q-190 0 -278 88.5t-88 276.5v629h188v-629q0 -214 198 -214q194 0 194 189v654h148v-663q0 -331 -362 -331z" />
    <glyph glyph-name="V" unicode="V" horiz-adv-x="842" 
d="M22 981h190l227 -754l228 754h155l-310 -981h-183z" />
    <glyph glyph-name="W" unicode="W" horiz-adv-x="1287" 
d="M932 263l182 718h152l-255 -981h-178l-193 700l-173 -700h-174l-271 981h185l189 -718l175 718h167z" />
    <glyph glyph-name="X" unicode="X" horiz-adv-x="907" 
d="M352 507l-287 474h217l193 -323l204 323h177l-292 -451l322 -530h-219l-227 372l-243 -372h-175z" />
    <glyph glyph-name="Y" unicode="Y" horiz-adv-x="870" 
d="M536 414v-414h-183v414l-331 567h209l236 -412l225 412h164z" />
    <glyph glyph-name="Z" unicode="Z" horiz-adv-x="826" 
d="M36 143l515 682h-479v156h709v-153l-506 -677h517v-151h-756v143z" />
    <glyph glyph-name="bracketleft" unicode="[" horiz-adv-x="367" 
d="M212 1017v-1053h85v-70h-225v1192h225v-69h-85z" />
    <glyph glyph-name="backslash" unicode="\" horiz-adv-x="546" 
d="M91 981h128l237 -1017h-129z" />
    <glyph glyph-name="bracketright" unicode="]" horiz-adv-x="367" 
d="M72 1017v69h225v-1192h-225v70h84v1053h-84z" />
    <glyph glyph-name="asciicircum" unicode="^" horiz-adv-x="517" 
d="M517 616h-113l-135 255l-159 -255h-110l206 365h123z" />
    <glyph glyph-name="underscore" unicode="_" horiz-adv-x="842" 
d="M0 -127h842v-128h-842v128z" />
    <glyph glyph-name="grave" unicode="`" horiz-adv-x="339" 
d="M36 981h131l88 -432h-81z" />
    <glyph glyph-name="a" unicode="a" horiz-adv-x="708" 
d="M486 102q-46 -58 -78 -79q-64 -42 -168 -42q-98 0 -165.5 62.5t-67.5 159.5q0 180 262 226q74 13 165 13q34 0 50 -2v56q0 101 -149 101q-129 0 -150 -101l-147 21q46 206 327 206q291 0 291 -235v-307q0 -145 21 -181h-173q-6 6 -13 54q-2 11 -5 48zM484 318v30
q-119 0 -183 -19q-111 -33 -111 -123q0 -96 119 -96q114 0 155 99q20 47 20 109z" />
    <glyph glyph-name="b" unicode="b" horiz-adv-x="753" 
d="M432 730q153 0 229 -120q62 -99 62 -262q0 -148 -74 -250q-83 -113 -226 -113q-162 0 -235 125l-45 -110h-82v948h172v-332q77 114 199 114zM235 280q0 -65 40 -114q44 -53 107 -53q159 0 159 228q0 111 -20 164q-33 86 -125 86q-8 1 -11 1q-73 0 -114 -64
q-36 -55 -36 -132v-116z" />
    <glyph glyph-name="c" unicode="c" horiz-adv-x="702" 
d="M380 589q-85 0 -126 -80q-33 -63 -33 -156q0 -88 32 -148q41 -76 122 -76q60 0 101 37t49 97l152 -14q-14 -115 -99 -188.5t-201 -73.5q-162 0 -255 114q-86 105 -86 270q0 148 92 251q95 108 241 108q263 0 308 -257l-155 -19q-30 135 -142 135z" />
    <glyph glyph-name="d" unicode="d" horiz-adv-x="753" 
d="M520 616v332h172v-948h-165v117q-71 -132 -198 -132q-143 0 -226 113q-74 102 -74 250q0 165 62 263q75 119 230 119q119 0 199 -114zM519 396q0 78 -36 133q-42 63 -116 63q-7 -1 -11 -1q-146 0 -146 -250q0 -228 161 -228q63 0 107 53q41 50 41 114v116z" />
    <glyph glyph-name="e" unicode="e" horiz-adv-x="725" 
d="M379 122q118 0 157 118l159 -23q-73 -229 -324 -229q-165 0 -256 105q-86 100 -86 267q0 164 89 265q93 107 255 107q168 0 252 -117q73 -102 73 -276h-497q0 -217 178 -217zM203 447h324q0 66 -48 115t-114 49q-132 0 -162 -164z" />
    <glyph glyph-name="f" unicode="f" horiz-adv-x="484" 
d="M305 0h-174v579h-116v125h116v24q0 149 59 205q56 53 179 49l100 -3v-138h-70q-94 0 -94 -86v-51h147v-125h-147v-579z" />
    <glyph glyph-name="g" unicode="g" horiz-adv-x="759" 
d="M672 527q0 -111 -104 -169q-85 -48 -205 -48l-128 16q-44 -28 -44 -59q0 -59 156 -59h48h18q12 1 17 1q144 1 216 -31q107 -47 107 -178q0 -127 -129 -189q-104 -50 -264 -50q-353 0 -353 190q0 53 36 93q21 24 69 51q-68 64 -68 120q0 49 40 89q20 20 76 56
q-104 67 -104 167q0 113 102 170q82 45 205 45q69 0 137 -19q19 90 85 122q50 25 153 25v-133q-73 0 -82 -1q-46 -5 -71 -53q87 -46 87 -156zM231 522q0 -113 134 -113q135 0 135 113q0 55 -41 85q-37 28 -94 28q-56 0 -93 -28q-41 -31 -41 -85zM382 -127q210 0 210 85
q0 6 -1 10q-10 69 -142 69h-35q-22 -1 -34 -1h-54q-103 0 -138 20q-29 -42 -29 -76q0 -107 223 -107z" />
    <glyph glyph-name="h" unicode="h" horiz-adv-x="719" 
d="M61 948h162v-377q82 149 207 149q236 0 236 -231v-489h-173v438q0 144 -104 144q-66 0 -113 -64q-43 -58 -43 -126v-392h-172v948z" />
    <glyph glyph-name="i" unicode="i" horiz-adv-x="292" 
d="M61 0v704h172v-704h-172zM61 780v165h172v-165h-172z" />
    <glyph glyph-name="j" unicode="j" horiz-adv-x="292" 
d="M61 780v165h172v-165h-172zM61 -39v743h172v-728q0 -139 -52 -194.5t-188 -55.5h-77v148h72q73 0 73 87z" />
    <glyph glyph-name="k" unicode="k" horiz-adv-x="704" 
d="M61 948h172v-564l282 320h173l-195 -223l203 -481h-181l-148 337l-134 -156v-181h-172v948z" />
    <glyph glyph-name="l" unicode="l" horiz-adv-x="292" 
d="M61 0v948h172v-948h-172z" />
    <glyph glyph-name="m" unicode="m" horiz-adv-x="1174" 
d="M61 704h162v-133q82 150 207 150q128 0 190 -74q20 -24 36 -74q73 147 217 147q241 0 241 -231v-489h-173v438q0 147 -108 147q-74 0 -121 -61q-43 -56 -43 -132v-392h-171v438q0 74 -18 105q-23 42 -91 42q-70 0 -115 -63q-41 -57 -41 -130v-392h-172v704z" />
    <glyph glyph-name="n" unicode="n" horiz-adv-x="725" 
d="M61 704h162v-133q82 149 207 149q236 0 236 -231v-489h-173v438q0 144 -104 144q-66 0 -113 -64q-43 -58 -43 -126v-392h-172v704z" />
    <glyph glyph-name="o" unicode="o" horiz-adv-x="720" 
d="M363 -15q-169 0 -259 111q-82 102 -82 275q0 144 95.5 250.5t237.5 106.5q160 0 254 -104q91 -100 91 -261q0 -157 -88 -264q-95 -114 -249 -114zM367 589q-164 0 -164 -236q0 -231 157 -231q159 0 159 236q0 231 -152 231z" />
    <glyph glyph-name="p" unicode="p" horiz-adv-x="753" 
d="M233 91v-334h-172v947h164v-115q69 131 198 131q143 0 226 -113q74 -101 74 -249q0 -165 -61 -263q-75 -120 -230 -120q-119 0 -199 116zM235 309q0 -80 40 -135q44 -61 121 -61q92 9 124 89q21 52 21 163q0 226 -159 226q-64 0 -105.5 -51t-41.5 -116v-115z" />
    <glyph glyph-name="q" unicode="q" horiz-adv-x="753" 
d="M321 -25q-154 0 -230 120q-62 99 -62 263q0 148 74 249q83 113 226 113q164 0 235 -125l45 109h83v-947h-172v334q-79 -116 -199 -116zM519 424q0 65 -42 116t-106 51q-161 0 -161 -226q0 -109 22 -163q33 -80 124 -89q78 0 123 61q40 54 40 135v115z" />
    <glyph glyph-name="r" unicode="r" horiz-adv-x="479" 
d="M61 704h160v-153q73 172 241 172v-178q-5 0 -14 1t-14 1q-97 0 -152 -75q-49 -68 -49 -169v-303h-172v704z" />
    <glyph glyph-name="s" unicode="s" horiz-adv-x="669" 
d="M462 512q-23 81 -121 81q-120 0 -120 -73q0 -49 168 -82q89 -18 126 -33q62 -26 98 -79q32 -48 32 -104q0 -122 -93 -187q-81 -56 -209 -56q-114 0 -206 43q-118 55 -118 157l160 28q20 -95 169 -95q122 0 122 75q0 59 -158 88q-172 32 -227 115q-29 44 -29 91
q0 242 287 242q99 0 173 -44q82 -49 105 -140z" />
    <glyph glyph-name="t" unicode="t" horiz-adv-x="484" 
d="M305 219q0 -90 79 -90h91v-129l-106 -4q-122 -5 -180 50t-58 205v328h-116v125h116l20 184h154v-184h147v-125h-147v-360z" />
    <glyph glyph-name="u" unicode="u" horiz-adv-x="725" 
d="M666 0h-165v135q-82 -150 -206 -150q-109 0 -171.5 60.5t-62.5 169.5v489h172v-435q0 -145 104 -145q70 0 115 62q41 56 41 128v390h173v-704z" />
    <glyph glyph-name="v" unicode="v" horiz-adv-x="656" 
d="M346 219l176 485h134l-247 -704h-144l-265 704h179z" />
    <glyph glyph-name="w" unicode="w" horiz-adv-x="984" 
d="M706 225l131 479h147l-204 -704h-151l-125 457l-137 -457h-148l-219 704h177l130 -479l131 479h142z" />
    <glyph glyph-name="x" unicode="x" horiz-adv-x="656" 
d="M135 0h-150l259 363l-212 341h201l119 -192l136 192h147l-215 -301l249 -403h-200l-155 253z" />
    <glyph glyph-name="y" unicode="y" horiz-adv-x="656" 
d="M185 -249q-37 0 -136 6v125q15 0 45.5 -3t45.5 -3q82 0 104 61l23 63l-267 704h179l167 -485l176 485h134l-289 -831q-42 -122 -182 -122z" />
    <glyph glyph-name="z" unicode="z" horiz-adv-x="645" 
d="M389 573h-328v131h545v-131l-345 -446h368v-127h-604v117z" />
    <glyph glyph-name="braceleft" unicode="{" horiz-adv-x="405" 
d="M305 -36h30v-70h-120q-91 0 -91 106v404q0 19 -67 106q67 85 67 106v365q0 105 91 105h120v-69h-30q-48 0 -48 -47v-325q0 -54 -11 -72q-20 -25 -36 -51q-2 -3 -7 -12l41 -54q13 -21 13 -66v-383q0 -43 48 -43z" />
    <glyph glyph-name="bar" unicode="|" horiz-adv-x="297" 
d="M110 1180h77v-1383h-77v1383z" />
    <glyph glyph-name="braceright" unicode="}" horiz-adv-x="405" 
d="M147 7v383q0 41 14 66q11 15 35 43q3 3 10 11l-46 63q-13 18 -13 72v325q0 47 -45 47h-30v69h118q92 0 92 -105v-365q0 -20 66 -106q0 1 -33 -42.5t-33 -63.5v-404q0 -106 -92 -106h-118v70h30q45 0 45 43z" />
    <glyph glyph-name="asciitilde" unicode="~" horiz-adv-x="957" 
d="M91 484l259 98l251 -133l265 97v-126l-265 -99l-251 135l-259 -100v128z" />
    <glyph glyph-name="quotesinglbase" unicode="&#x201a;" 
d="M-549 973v232h198v-232h-198z" />
    <glyph glyph-name="florin" unicode="&#x192;" 
d="M-531 1178q12 -22 12 -49q0 -35 -20 -61q14 3 23 4q138 29 234 94v-137q-99 -43 -173 -58q-44 -9 -159 -9h-54q-20 0 -40 1v39q29 24 29 68q-6 39 -62 39l37 107q16 6 61 6q90 0 112 -44z" />
    <glyph glyph-name="quotedblbase" unicode="&#x201e;" 
d="M-618 1151q12 18 22 26q32 26 82 26q43 0 74.5 -28.5t31.5 -71.5q0 -29 -19 -58q23 6 35 14q39 25 61 77l49 -64q-12 -39 -66 -74q-63 -41 -134 -41q-36 0 -69 10q12 13 18 22q19 28 19 54q0 47 -45 47q-26 0 -45 -18q-6 -5 -14 -18q-7 12 -13 18q-18 18 -46 18
q-37 0 -37 -47q0 -55 39 -80h-99q-21 14 -32 28q-33 41 -33 95q0 49 34 83t83 34q46 0 80 -26q12 -9 24 -26z" />
    <glyph glyph-name="ellipsis" unicode="&#x2026;" 
d="M-416 973h-182v85h-98v95h98v87h182v-87h99v-95h-99v-85z" />
    <glyph glyph-name="dagger" unicode="&#x2020;" 
d="M-587 973q0 134 47 181q61 60 248 60v-89q-6 1 -17 1q-51 0 -68 -34q-12 -24 -12 -82v-37h-198z" />
    <glyph glyph-name="daggerdbl" unicode="&#x2021;" 
d="M-267 973v232h197v-232h-197z" />
    <glyph glyph-name="circumflex" unicode="&#x2c6;" 
d="M-219 1204q12 -24 12 -54q0 -39 -23 -68l45 8q105 20 203 75q62 34 79 55v-156q-92 -64 -233 -91q-58 -11 -187 -11h-48q-6 0 -18 1h-18h-9v43q33 31 33 76q-11 45 -70 45l41 117q28 7 68 7q25 0 48 -3q58 -8 77 -44z" />
    <glyph glyph-name="perthousand" unicode="&#x2030;" 
d="M-446 1171q14 20 24 28q36 28 91 28q47 0 84 -32t37 -78q0 -32 -22 -66q37 11 56 28q32 28 52 77l54 -74q-12 -43 -73 -83q-71 -47 -151 -47q-40 0 -76 11q12 14 19 25q20 32 20 61q0 54 -46 54q-32 0 -54 -20q-7 -7 -16 -21q-8 14 -14 20q-21 21 -51 21q-43 0 -43 -54
q0 -56 45 -90h-112q-24 17 -35 31q-36 45 -36 107q0 57 37 93.5t94 36.5q53 0 90 -28q12 -9 26 -28z" />
    <glyph glyph-name="Scaron" unicode="&#x160;" 
d="M-70 973h-188v89h-106v102h106v89h188v-89h107v-102h-107v-89z" />
    <glyph glyph-name="guilsinglleft" unicode="&#x2039;" 
d="M-286 973q0 135 47 181q61 60 250 60v-89q-63 0 -83 -30q-15 -22 -15 -81v-41h-199z" />
    <glyph glyph-name="OE" unicode="&#x152;" horiz-adv-x="865" 
d="M718 722q89 -89 89 -323q0 -148 -80 -266q-91 -133 -233 -133h-202q-16 49 -49 190q-23 97 -43 131q-29 49 -81 49l54 152q109 0 153 -46q26 -28 44 -93l62 -229h21q75 0 119 86q35 69 35 151q0 139 -33 205q-47 91 -169 91q-166 0 -193 -117l-169 28q26 120 136 182
q95 53 228 53q106 0 180 -27q46 22 46 95h174q0 -126 -89 -179z" />
    <glyph glyph-name="quoteleft" unicode="&#x2018;" horiz-adv-x="389" 
d="M210 1123h85l-106 -232h80v-180h-187v171z" />
    <glyph glyph-name="quoteright" unicode="&#x2019;" horiz-adv-x="389" 
d="M179 711h-84l107 232h-81v180h189v-172z" />
    <glyph glyph-name="quotedblleft" unicode="&#x201c;" horiz-adv-x="640" 
d="M210 1123h85l-106 -232h80v-180h-187v171zM459 1123h85l-106 -232h80v-180h-187v171z" />
    <glyph glyph-name="quotedblright" unicode="&#x201d;" horiz-adv-x="640" 
d="M430 711h-86l107 232h-81v180h189v-172zM179 711h-84l107 232h-81v180h189v-172z" />
    <glyph glyph-name="bullet" unicode="&#x2022;" 
d="M-446 973q-56 0 -118 29q-73 35 -80 84l136 93q14 -34 69 -58q48 -22 90 -22h375v-126h-472z" />
    <glyph glyph-name="endash" unicode="&#x2013;" 
d="M-505 926q-73 0 -124 41q-56 44 -56 115q0 69 57 112q52 39 123 39q70 0 120 -40q54 -43 54 -111q0 -71 -53 -115q-49 -41 -121 -41zM-440 1082q0 23 -20.5 39.5t-44.5 16.5q-25 0 -47 -16t-22 -40q0 -59 69 -59q24 0 44.5 17.5t20.5 41.5z" />
    <glyph glyph-name="emdash" unicode="&#x2014;" 
d="M-321 1208v-70h-286q-63 0 -63 -48q-3 -18 15 -36l100 49l69 -39q23 -9 42 -6q34 11 39 47l84 -37q0 -40 -27 -72.5t-66 -32.5t-82 23l-61 33l-85 -41q-27 -13 -54 -13q-51 0 -84 35t-33 86t35.5 86.5t86.5 35.5h370z" />
    <glyph glyph-name="tilde" unicode="&#x2dc;" 
d="M-477 1264v207h158v-207h-158z" />
    <glyph glyph-name="trademark" unicode="&#x2122;" 
d="M-407 1471q12 -21 12 -47q0 -33 -19 -56q22 4 37 7q33 7 69 18q128 39 176 96v-137q-80 -54 -202 -80q-37 -8 -151 -8h-91v37q28 28 28 56q-1 7 -1 11q-6 39 -60 39l35 101q30 5 63 5q80 0 104 -42z" />
    <glyph glyph-name="scaron" unicode="&#x161;" 
d="M-397 1435q11 16 20 23q29 23 74 23q38 0 67 -25.5t29 -63.5q0 -27 -17 -53q21 6 32 13q37 23 56 70l45 -58q-14 -46 -76 -78q-56 -29 -108 -29q-29 0 -61 9q11 13 16 21q17 27 17 50q0 42 -39 42q-25 0 -42 -15q-4 -4 -13 -16q-6 11 -11 15q-17 16 -43 16q-33 0 -33 -42
q0 -52 37 -73h-94q-19 14 -28 25q-29 36 -29 85q0 47 29.5 77t76.5 30q43 0 74 -23q11 -8 21 -23z" />
    <glyph glyph-name="guilsinglright" unicode="&#x203a;" 
d="M-323 1264h-150v84h-99v96h99v87h150v-87h99v-96h-99v-84z" />
    <glyph glyph-name="oe" unicode="&#x153;" 
d="M-477 1264q0 110 41 148q53 49 218 49v-74q-7 1 -19 1q-53 0 -70 -35q-12 -25 -12 -89h-158z" />
    <glyph glyph-name="Ydieresis" unicode="&#x178;" horiz-adv-x="1242" 
d="M835 -22q-147 0 -218 47q-88 57 -88 194v325q0 145 -132 145q-130 0 -130 -148v-428h93v-113h-290v416q0 115 82 185q-13 5 -28 8q-35 8 -56 8v87q47 37 135 74q111 47 196 47q327 0 327 -247v-266q0 -97 18 -129q24 -43 102 -43q82 0 109 48q20 35 20 124v495h198v-588
q0 -241 -338 -241z" />
    <glyph glyph-name="exclamdown" unicode="&#xa1;" horiz-adv-x="845" 
d="M70 416q0 115 82 185q-13 5 -28 8q-35 8 -56 8v87q44 36 149 74q128 47 230 47q327 0 327 -247v-578h-196v544q0 143 -150 143q-69 0 -113 -38q-48 -40 -48 -107v-542h-197v416z" />
    <glyph glyph-name="cent" unicode="&#xa2;" horiz-adv-x="739" 
d="M323 447q-42 -54 -52 -70q-34 -52 -34 -117q0 -134 117 -134q119 0 119 136v545h199v-532q0 -297 -312 -297q-315 0 -315 277q0 67 36 128q12 20 75 100l56 71q35 50 35 82q0 58 -63 58q-24 0 -52 -11q-10 -4 -41 -20l-37 104q23 18 68 35q63 23 134 23q138 0 164 -140
q3 -16 3 -37q0 -59 -36 -117q-12 -17 -64 -84z" />
    <glyph glyph-name="sterling" unicode="&#xa3;" horiz-adv-x="739" 
d="M136 496q26 32 93 94q50 46 50 70q0 36 -35 36q-45 0 -77 -46q-21 17 -36 26q-49 29 -105 36l22 107q16 0 58 -18q51 -22 67 -44q43 62 125 62q15 0 34 -4q92 -19 92 -148q-4 -44 -47 -104q-9 -13 -75 -93t-66 -210q0 -134 118 -134q119 0 119 136v545h199v-532
q0 -297 -312 -297q-315 0 -315 277q0 129 91 241z" />
    <glyph glyph-name="currency" unicode="&#xa4;" horiz-adv-x="830" 
d="M267 397q62 82 179 82v-158q-17 3 -33 3q-65 0 -107 -54q-39 -49 -39 -116v-154h-197v535q0 163 96 233q83 60 256 60q341 0 341 -293v-535h-199v544q0 143 -144 143q-153 0 -153 -143v-147z" />
    <glyph glyph-name="yen" unicode="&#xa5;" horiz-adv-x="839" 
d="M267 397q62 82 179 82v-158q-17 3 -33 3q-65 0 -107 -54q-39 -49 -39 -116v-154h-197v535q0 252 245 288l107 -58l107 56q234 -37 234 -286v-535h-199v544q0 61 -28 96q-7 9 -34 27l-82 -47l-80 50q-73 -32 -73 -126v-147z" />
    <glyph glyph-name="brokenbar" unicode="&#xa6;" horiz-adv-x="830" 
d="M444 142q120 0 120 166v499h199v-560q0 -264 -271 -264q-142 0 -236 171v-154h-186v247v35q-1 22 -1 34q0 116 52 180q20 25 93 93q49 46 49 69q0 37 -36 37q-43 0 -75 -45q-24 18 -40 27q-51 29 -103 35l24 109q27 -5 59 -19q46 -20 66 -45q53 62 127 62q14 0 22 -2
t12 -2q92 -22 92 -121q0 -57 -34 -98q-52 -63 -63 -78q-47 -64 -47 -127v-37q0 -75 46 -139q52 -73 131 -73z" />
    <glyph glyph-name="section" unicode="&#xa7;" horiz-adv-x="826" 
d="M221 718l152 -564h41q78 0 114 85q27 63 27 152q0 276 -148 276q-11 0 -27 2q-33 0 -57 -12l-26 125q58 37 150 37q163 0 245 -135q67 -111 67 -285q0 -149 -63 -262q-77 -137 -215 -137h-251l-197 718h188z" />
    <glyph glyph-name="dieresis" unicode="&#xa8;" horiz-adv-x="837" 
d="M236 354l56 162q86 0 129 -37q38 -32 58 -100l50 -167l41 253q6 37 6 60q0 158 -175 158q-72 0 -112 -15q-69 -26 -81 -98l-169 28q26 118 137 179q95 51 227 51q363 0 363 -282q0 -45 -13 -104l-98 -442h-235l-53 187q-27 91 -50 124q-30 43 -81 43z" />
    <glyph glyph-name="copyright" unicode="&#xa9;" horiz-adv-x="837" 
d="M769 0h-186v154q-88 -171 -231 -171q-121 0 -198.5 72.5t-77.5 193.5v210h197v-151q0 -166 126 -166q78 0 127 71q44 64 44 145v107q0 119 -23 159q-34 59 -146 59q-172 0 -193 -113l-171 28q27 117 139 178q96 52 227 52q218 0 298 -95q68 -81 68 -284v-449z" />
    <glyph glyph-name="ordfeminine" unicode="&#xaa;" horiz-adv-x="739" 
d="M529 872h189q0 -53 -36 -138q-40 -95 -83 -116q15 -5 22 -10q51 -34 51 -122v-211q0 -297 -320 -297q-315 0 -315 277q0 67 36 128q10 16 75 100l57 72q35 47 35 82q0 57 -64 57q-23 0 -52 -11q-16 -6 -40 -20l-37 104q65 58 202 58q136 0 163 -140q3 -16 3 -37
q0 -59 -36 -117l-64 -84q-51 -66 -64 -91q-21 -41 -21 -96q0 -134 117 -134q126 0 126 136v189q0 56 -14 91q-9 21 -31 37q103 110 103 261q0 20 -2 32z" />
    <glyph glyph-name="guillemotleft" unicode="&#xab;" horiz-adv-x="739" 
d="M301 469q-65 -78 -65 -209q0 -134 118 -134q119 0 119 136v189q0 56 -14 91q-9 21 -31 37q103 110 103 261q0 20 -2 32h189q0 -53 -36 -138q-40 -95 -84 -116q25 -9 37 -21q37 -36 37 -111v-211q0 -297 -312 -297q-315 0 -315 277q0 129 91 241q26 32 93 94q50 46 50 70
q0 36 -35 36q-45 0 -77 -46q-21 17 -36 26q-49 29 -105 36l22 107q16 0 58 -18q51 -22 67 -44q43 62 125 62q15 0 34 -4q92 -19 92 -148q-4 -44 -47 -104q-13 -19 -76 -94z" />
    <glyph glyph-name="logicalnot" unicode="&#xac;" horiz-adv-x="1242" 
d="M726 344q0 -198 130 -198q119 0 119 162v499h198v-560q0 -124 -68.5 -195t-191.5 -71q-137 0 -197 165v-146h-187v544q0 145 -132 145q-130 0 -130 -148v-428h93v-113h-290v416q0 115 82 185q-13 5 -28 8q-35 8 -56 8v87q47 37 135 74q111 47 196 47q327 0 327 -247v-234
z" />
    <glyph glyph-name="minus" unicode="&#xad;" horiz-adv-x="1242" 
d="M988 121q-27 -47 -49 -69q-67 -69 -157 -69q-116 0 -183 59q-70 62 -70 177v325q0 145 -132 145q-130 0 -130 -148v-428h93v-113h-290v416q0 115 82 185q-13 5 -28 8q-35 8 -56 8v87q47 37 135 74q111 47 196 47q327 0 327 -247v-279q0 -153 120 -153q129 0 129 166v495
h198v-774q0 -158 -114 -242q-101 -75 -265 -75q-78 0 -172 33q-83 29 -106 52l76 145q9 -43 85 -75q64 -27 115 -27q133 0 174 97q22 52 22 180z" />
    <glyph glyph-name="minus" unicode="&#x2212;" horiz-adv-x="1242" 
d="M988 121q-27 -47 -49 -69q-67 -69 -157 -69q-116 0 -183 59q-70 62 -70 177v325q0 145 -132 145q-130 0 -130 -148v-428h93v-113h-290v416q0 115 82 185q-13 5 -28 8q-35 8 -56 8v87q47 37 135 74q111 47 196 47q327 0 327 -247v-279q0 -153 120 -153q129 0 129 166v495
h198v-774q0 -158 -114 -242q-101 -75 -265 -75q-78 0 -172 33q-83 29 -106 52l76 145q9 -43 85 -75q64 -27 115 -27q133 0 174 97q22 52 22 180z" />
    <glyph glyph-name="registered" unicode="&#xae;" horiz-adv-x="846" 
d="M206 -150l91 84l92 -84h78q66 0 84 15q28 23 28 106v573q0 143 -149 143q-69 0 -114 -39t-45 -106v-542h-284v113h85v303q0 111 84 185q-14 5 -29 8q-36 8 -55 8v87q44 35 148 74q127 47 231 47q327 0 327 -247v-689q0 -184 -227 -184h-176l-78 69l-78 -69h-215v145h202z
" />
    <glyph glyph-name="macron" unicode="&#xaf;" horiz-adv-x="846" 
d="M579 -29v573q0 143 -149 143q-69 0 -114 -39t-45 -106v-542h-284v113h85v303q0 111 84 185q-14 5 -29 8q-36 8 -55 8v87q44 35 148 74q127 47 231 47q327 0 327 -247v-689q0 -184 -227 -184h-100l-62 63l-62 -63h-60l-61 63l-62 -63h-140v145h111l91 80l91 -80l92 80
l92 -80q54 0 71 15q27 24 27 106z" />
    <glyph glyph-name="macron" unicode="&#x2c9;" horiz-adv-x="846" 
d="M579 -29v573q0 143 -149 143q-69 0 -114 -39t-45 -106v-542h-284v113h85v303q0 111 84 185q-14 5 -29 8q-36 8 -55 8v87q44 35 148 74q127 47 231 47q327 0 327 -247v-689q0 -184 -227 -184h-100l-62 63l-62 -63h-60l-61 63l-62 -63h-140v145h111l91 80l91 -80l92 80
l92 -80q54 0 71 15q27 24 27 106z" />
    <glyph glyph-name="degree" unicode="&#xb0;" horiz-adv-x="865" 
d="M718 722q89 -89 89 -323q0 -148 -80 -266q-91 -133 -233 -133h-202q-16 49 -49 190q-23 97 -43 131q-29 49 -81 49l54 152q109 0 153 -46q26 -28 44 -93l62 -229h21q75 0 119 86q35 69 35 151q0 139 -33 205q-47 91 -169 91q-166 0 -193 -117l-169 28q26 120 136 182
q95 53 228 53q106 0 180 -27q46 22 46 95h174q0 -126 -89 -179zM802 -41v-78q0 -184 -224 -184h-109l-80 67l-79 -67h-176v145h156l99 84l99 -84h39q84 0 84 95v22h191z" />
    <glyph glyph-name="plusminus" unicode="&#xb1;" horiz-adv-x="876" 
d="M115 522q-36 146 -128 157l50 132q30 0 83 -44.5t53 -72.5l48 113h92v-142q88 160 226 160q268 0 268 -265v-560h-198v502q0 165 -119 165q-75 0 -128 -72q-49 -66 -49 -144v-451h-198v522z" />
    <glyph glyph-name="twosuperior" unicode="&#xb2;" horiz-adv-x="1303" 
d="M592 661l-94 -62q-38 71 -103 71q-17 0 -35 -7q-115 -44 -115 -249q0 -274 160 -276q6 0 14 -1h9q27 0 46 7q6 2 14 8l24 -123q-52 -44 -148 -44q-165 0 -253 134q-76 115 -76 288q0 172 81 286q91 128 257 128q84 0 139 -80l84 65h192v-474q0 -67 35 -124
q40 -66 103 -66q111 0 111 168v496h198v-565q0 -267 -260 -267q-62 0 -120 53q-49 45 -77 109v-140h-186v665z" />
    <glyph glyph-name="threesuperior" unicode="&#xb3;" horiz-adv-x="1242" 
d="M360 0h-290v416q0 115 82 185q-13 5 -28 8q-35 8 -56 8v87q47 37 135 74q111 47 196 47q327 0 327 -247v-279q0 -153 120 -153q129 0 129 166v495h198v-807h-175l-10 128q-76 -145 -206 -145q-119 0 -186 67.5t-67 186.5v307q0 145 -132 145q-130 0 -130 -148v-428h93
v-113z" />
    <glyph glyph-name="acute" unicode="&#xb4;" horiz-adv-x="865" 
d="M498 156l22 -123q-50 -44 -149 -44q-165 0 -256 133q-80 115 -80 288q0 188 112 303t300 115q149 0 245 -73q106 -81 106 -226v-529h-199v486q0 193 -150 193q-208 0 -208 -261q0 -262 173 -278q46 0 73 10q5 1 11 6z" />
    <glyph glyph-name="mu1" unicode="&#xb5;" horiz-adv-x="865" 
d="M371 -11q-164 0 -251 134q-75 115 -75 287q0 167 77 282q90 133 249 133q96 0 149 -80l85 62h193v-807h-199v665l-91 -64q-39 72 -104 72q-16 0 -33 -6q-118 -42 -118 -249q0 -278 161 -278q38 0 65 8q9 3 19 8l22 -123q-50 -44 -149 -44z" />
    <glyph glyph-name="mu1" unicode="&#x3bc;" horiz-adv-x="865" 
d="M371 -11q-164 0 -251 134q-75 115 -75 287q0 167 77 282q90 133 249 133q96 0 149 -80l85 62h193v-807h-199v665l-91 -64q-39 72 -104 72q-16 0 -33 -6q-118 -42 -118 -249q0 -278 161 -278q38 0 65 8q9 3 19 8l22 -123q-50 -44 -149 -44z" />
    <glyph glyph-name="paragraph" unicode="&#xb6;" horiz-adv-x="845" 
d="M267 113h130v-113h-327v416q0 115 82 185q-13 5 -28 8q-35 8 -56 8v87q44 36 149 74q128 47 230 47q327 0 327 -247v-578h-196v544q0 143 -150 143q-69 0 -113 -38q-48 -40 -48 -107v-429z" />
    <glyph glyph-name="periodcentered" unicode="&#xb7;" horiz-adv-x="830" 
d="M267 0h-197v807h186v-152q92 170 236 170q271 0 271 -265v-560h-199v502q0 165 -118 165q-76 0 -130 -73q-49 -66 -49 -145v-449z" />
    <glyph glyph-name="periodcentered" unicode="&#x2219;" horiz-adv-x="830" 
d="M267 0h-197v807h186v-152q92 170 236 170q271 0 271 -265v-560h-199v502q0 165 -118 165q-76 0 -130 -73q-49 -66 -49 -145v-449z" />
    <glyph glyph-name="cedilla" unicode="&#xb8;" horiz-adv-x="804" 
d="M191 386q-69 37 -97 70q-40 47 -40 118q0 241 341 241q86 0 162 -2l157 -6l-33 -150h-288q-122 0 -122 -61q0 -55 126 -84q189 -44 218 -57q131 -60 131 -214q0 -15 -3 -46q-10 -98 -86 -150q-68 -45 -171 -45h-420v278h187v-117h174q59 0 81 10q33 15 33 61
q6 58 -122 88q-186 43 -228 66z" />
    <glyph glyph-name="onesuperior" unicode="&#xb9;" horiz-adv-x="830" 
d="M763 0h-176l-9 154q-89 -171 -231 -171q-122 0 -198 72q-79 73 -79 194v558h197v-499q0 -166 126 -166q77 0 127 72q44 63 44 144v449h199v-807z" />
    <glyph glyph-name="ordmasculine" unicode="&#xba;" horiz-adv-x="830" 
d="M267 262q0 -128 149 -128q148 0 148 128v545h199v-532q0 -297 -341 -297q-174 0 -257 62q-95 70 -95 235v532h197v-545z" />
    <glyph glyph-name="guillemotright" unicode="&#xbb;" horiz-adv-x="846" 
d="M267 262q0 -128 157 -128q155 0 155 128v886h199v-873q0 -297 -348 -297q-175 0 -260 61q-100 71 -100 236v532h197v-545z" />
    <glyph glyph-name="onequarter" unicode="&#xbc;" horiz-adv-x="954" 
d="M325 130q56 0 56 69v373h189v-372q0 -72 65 -72q52 0 52 71v608h198v-532q0 -149 -39 -214q-50 -83 -179 -83q-49 0 -103 30.5t-83 71.5q-23 -42 -75 -72t-100 -30q-154 0 -208 104q-46 89 -46 317q0 420 261 420q88 0 136 -37l-21 -110q-4 2 -9 2q-22 5 -65 5
q-93 0 -108 -131q-5 -44 -5 -157q0 -126 4 -154q16 -107 80 -107z" />
    <glyph glyph-name="onehalf" unicode="&#xbd;" horiz-adv-x="954" 
d="M325 130q56 0 56 69v373h189v-372q0 -72 65 -72q52 0 52 71v949h198v-873q0 -149 -39 -214q-50 -83 -179 -83q-49 0 -103 30.5t-83 71.5q-23 -42 -75 -72t-100 -30q-154 0 -208 104q-46 89 -46 317q0 420 261 420q88 0 136 -37l-21 -110q-4 2 -9 2q-22 5 -65 5
q-93 0 -108 -131q-5 -44 -5 -157q0 -126 4 -154q16 -107 80 -107z" />
    <glyph glyph-name="threequarters" unicode="&#xbe;" horiz-adv-x="954" 
d="M481 80q-60 -102 -175 -102q-139 0 -193 84q-43 66 -43 213v532h197v-607q0 -70 58 -70q52 0 52 69v608h199v-607q0 -70 59 -70q52 0 52 69v608h198v-532q0 -149 -39 -214q-50 -83 -181 -83q-106 0 -184 102z" />
    <glyph glyph-name="questiondown" unicode="&#xbf;" horiz-adv-x="954" 
d="M481 80q-60 -102 -175 -102q-139 0 -193 84q-43 66 -43 213v532h197v-607q0 -70 58 -70q52 0 52 69v608h199v-607q0 -70 59 -70q52 0 52 69v949h198v-873q0 -149 -39 -214q-50 -83 -181 -83q-106 0 -184 102z" />
    <glyph glyph-name="Agrave" unicode="&#xc0;" horiz-adv-x="846" 
d="M-13 0v113h85v303q0 111 84 185q-14 5 -29 8q-36 8 -55 8v87q44 35 148 74q127 47 231 47q327 0 327 -247v-578h-199v544q0 143 -149 143q-69 0 -114 -39t-45 -106v-542h-284z" />
    <glyph glyph-name="Aacute" unicode="&#xc1;" horiz-adv-x="830" 
d="M267 360q0 -78 50 -145q54 -73 129 -73q118 0 118 166v499h199v-560q0 -264 -271 -264q-142 0 -236 171v-154h-186v807h197v-447z" />
    <glyph glyph-name="Acircumflex" unicode="&#xc2;" horiz-adv-x="826" 
d="M449 782l-37 -121q-54 26 -94 26q-82 0 -82 -71q-1 -10 -1 -15q0 -57 65 -87q50 -24 114 -24v-109q-65 0 -94 -13q-48 -21 -58 -82q-2 -12 -2 -25q0 -133 164 -133q136 0 136 164v515h199v-542q0 -287 -337 -287q-374 0 -374 277q0 72 52 128q16 18 52 41
q-111 38 -111 200q0 91 57.5 145t148.5 54q127 0 202 -41z" />
    <glyph glyph-name="Atilde" unicode="&#xc3;" horiz-adv-x="817" 
d="M546 587q-24 92 -138 92q-137 0 -137 -83q0 -54 134 -84q191 -43 226 -61q128 -66 128 -196q0 -140 -107 -215q-93 -64 -240 -64q-270 0 -351 160q-19 38 -22 70l187 31q18 -109 190 -109q141 0 141 86q0 61 -126 89q-182 41 -223 63q-124 68 -124 185q0 141 95 213
q85 64 231 64q113 0 198 -50q94 -57 120 -160z" />
    <glyph glyph-name="Adieresis" unicode="&#xc4;" horiz-adv-x="845" 
d="M267 113h130v-113h-327v416q0 115 82 185q-13 5 -28 8q-35 8 -56 8v87q44 36 149 74q128 47 230 47q327 0 327 -247v-870h-196v836q0 143 -150 143q-69 0 -113 -38q-48 -40 -48 -107v-429z" />
    <glyph glyph-name="Aring" unicode="&#xc5;" horiz-adv-x="846" 
d="M778 559v-559h-199v395q-141 0 -208 -19q-126 -36 -126 -140q0 -54 42 -84q38 -27 94 -27t102 29l19 -109q-64 -67 -201 -67q-113 0 -189.5 71t-76.5 183q0 207 300 260q86 15 189 15q37 0 55 -2v63q0 115 -171 115q-137 0 -165 -111l-175 26q58 230 378 230
q332 0 332 -269z" />
    <glyph glyph-name="AE" unicode="&#xc6;" horiz-adv-x="846" 
d="M-13 0v113h85v303q0 111 84 185q-14 5 -29 8q-36 8 -55 8v87q44 35 148 74q127 47 231 47q327 0 327 -247v-870h-199v836q0 143 -149 143q-69 0 -114 -39t-45 -106v-542h-284z" />
    <glyph glyph-name="Ccedilla" unicode="&#xc7;" horiz-adv-x="876" 
d="M412 117q206 0 206 291q0 266 -200 266q-69 0 -121.5 -46.5t-60.5 -115.5l-182 15q19 133 124 217q102 81 238 81q195 0 305 -122q105 -117 105 -314q0 -188 -105 -300q-108 -115 -294 -115q-297 0 -359 297l181 23q0 -66 48 -120q50 -57 115 -57z" />
    <glyph glyph-name="Egrave" unicode="&#xc8;" horiz-adv-x="830" 
d="M763 535v-535h-199v544q0 143 -144 143q-153 0 -153 -143v-147q62 82 179 82v-158q-17 3 -33 3q-65 0 -107 -54q-39 -49 -39 -116v-154h-197v535q0 163 96 233q83 60 256 60q73 0 135 -13q21 -5 46 -13q28 44 92 71q59 24 116 24l17 -156q-28 4 -47 4q-52 0 -69 -21
q17 -24 25 -45q26 -63 26 -144z" />
    <glyph glyph-name="Eacute" unicode="&#xc9;" horiz-adv-x="830" 
d="M564 371h-52q-54 0 -110 20q-70 26 -83 68l105 120q4 -33 57 -57q44 -20 83 -20v305h199v-305h106v-131h-106v-96q0 -297 -341 -297q-174 0 -257 62q-95 70 -95 235v532h197v-545q0 -128 149 -128q148 0 148 128v109z" />
    <glyph glyph-name="Ecircumflex" unicode="&#xca;" horiz-adv-x="846" 
d="M778 559v-559h-199v395q-141 0 -208 -19q-126 -36 -126 -140q0 -54 42 -84q38 -27 94 -27t102 29l19 -109q-64 -67 -201 -67q-113 0 -189.5 71t-76.5 183q0 207 300 260q86 15 189 15q37 0 55 -2v63q0 115 -171 115q-137 0 -165 -111l-175 26q58 230 378 230
q73 0 132 -14q22 -5 42 -14q26 42 87 70q57 26 110 26q11 0 16 -1l15 -156q-22 4 -46 4q-54 0 -71 -21q15 -21 23 -39q24 -56 24 -124z" />
    <glyph glyph-name="Edieresis" unicode="&#xcb;" horiz-adv-x="830" 
d="M267 0h-197v807h197v-285q57 61 173 111q141 61 141 174h203q0 -43 -36 -97q-46 -69 -122 -103q45 -16 68 -36q69 -61 69 -178v-393h-199v340q0 165 -118 165q-75 0 -130 -81q-49 -72 -49 -151v-273z" />
    <glyph glyph-name="Igrave" unicode="&#xcc;" horiz-adv-x="954" 
d="M481 78q-58 -100 -160 -100q-159 0 -212 83q-39 61 -39 214v532h197v-607q0 -70 58 -70q52 0 52 69v451h199v-450q0 -70 59 -70q52 0 52 69l2 379q1 99 -76 113v48q31 15 46 30q28 29 28 77v58h198v-59q0 -88 -60 -129q11 -5 18 -11q42 -37 42 -118v-312q0 -154 -37 -214
q-51 -83 -202 -83q-90 0 -165 100z" />
    <glyph glyph-name="Iacute" unicode="&#xcd;" horiz-adv-x="895" 
d="M66 449h376v-128h-184q0 -87 52.5 -145.5t138.5 -58.5q187 0 187 266q0 291 -206 291q-135 0 -179 -135l-181 25q40 126 138 193.5t232 67.5q188 0 295 -119q102 -114 102 -305q0 -189 -104 -306q-108 -121 -295 -121q-196 0 -292 146q-80 122 -80 329z" />
    <glyph glyph-name="Icircumflex" unicode="&#xce;" horiz-adv-x="895" 
d="M837 401q0 -188 -103 -305q-108 -122 -294 -122q-197 0 -292 145q-80 122 -80 330h378v-128h-186q0 -87 51 -146q54 -62 140 -62q191 0 191 270q0 291 -208 291q-137 0 -181 -135l-181 25q86 261 372 261q71 0 135 -19q22 -7 50 -20q27 49 86 79q56 29 115 29q12 0 18 -1
l16 -154q-18 4 -44 4q-61 0 -89 -35q7 -4 27 -32q79 -109 79 -275z" />
    <glyph glyph-name="Idieresis" unicode="&#xcf;" horiz-adv-x="826" 
d="M560 0v434q-33 -25 -57 -37q-73 -37 -156 -37q-283 0 -306 218q-1 9 -1 22q0 105 83 168q75 57 183 57q115 0 184 -60l-35 -93q-41 22 -92 22q-131 0 -131 -110v-12q0 -95 135 -95q68 0 125 31q68 37 68 99v200h199v-807h-199z" />
    <glyph glyph-name="Eth" unicode="&#xd0;" horiz-adv-x="436" 
d="M249 663h130v-145h-188q-60 0 -114.5 35.5t-76.5 90.5l146 99q0 -33 36 -58q33 -22 67 -22zM249 224h130v-146h-188q-59 0 -114 36t-77 90l146 99q0 -33 36 -57q32 -22 67 -22z" />
    <glyph glyph-name="Ntilde" unicode="&#xd1;" 
d="M-273 973q-56 0 -118 29q-73 34 -80 82l135 95q16 -35 70 -60q48 -22 91 -22h296v-124h-394z" />
    <glyph glyph-name="Ograve" unicode="&#xd2;" horiz-adv-x="555" 
d="M87 648l-50 95q132 85 266 85q183 0 183 -159v-669h-198v567q0 11 1 22q0 102 -87 102q-34 0 -71 -17q-13 -6 -44 -26z" />
    <glyph glyph-name="Oacute" unicode="&#xd3;" horiz-adv-x="555" 
d="M-169 924q-73 0 -124 41q-56 44 -56 115q0 68 57 111q53 40 123 40q71 0 122 -39q55 -43 55 -112q0 -70 -54 -115q-51 -41 -123 -41zM87 648l-50 95q132 85 266 85q183 0 183 -159v-669h-198v567q0 11 1 22q0 102 -87 102q-34 0 -71 -17q-13 -6 -44 -26zM-104 1080
q0 56 -65 56q-24 0 -46 -16t-22 -40t21.5 -41.5t46.5 -17.5q65 0 65 59z" />
    <glyph glyph-name="Ocircumflex" unicode="&#xd4;" 
d="M-716 1095h646v-122h-702z" />
    <glyph glyph-name="Otilde" unicode="&#xd5;" 
d="M-70 1216v-243h-702l56 122h449v121h197z" />
    <glyph glyph-name="Odieresis" unicode="&#xd6;" 
d="M-358 1093q-6 59 45 96q45 31 107 31q146 0 146 -123q0 -124 -146 -124h-594l57 120h385zM-152 1097q0 43 -54 43q-59 0 -59 -43t59 -43q54 0 54 43z" />
    <glyph glyph-name="multiply" unicode="&#xd7;" 
d="M-146 1216h76v-243h-702l56 122h378v121h80q20 0 22 -24l4 -50q3 -33 30 -33q23 0 27 33l6 50q3 24 23 24z" />
    <glyph glyph-name="Oslash" unicode="&#xd8;" 
d="M-70 -377h-179v110v14q1 8 1 10q0 46 -38 46h-54l34 108h131q50 0 67 -7q38 -16 38 -69v-212z" />
    <glyph glyph-name="Ugrave" unicode="&#xd9;" 
d="M-510 -280v17q1 12 1 18q0 54 -40 54h-45l48 107h65q105 0 104 -76q0 -7 -1 -18v-13q0 -74 57 -74q63 0 63 63v113h188v-141q0 -98 -75 -135q-52 -26 -163 -26q-68 0 -125 22q-77 31 -77 89z" />
    <glyph glyph-name="Uacute" unicode="&#xda;" 
d="M-267 -180q0 41 29.5 69.5t70.5 28.5q42 0 70.5 -28t28.5 -70t-28.5 -71t-70.5 -29q-41 0 -70.5 29.5t-29.5 70.5z" />
    <glyph glyph-name="Ucircumflex" unicode="&#xdb;" 
d="M-759 1095h440v-122h-496z" />
    <glyph glyph-name="Udieresis" unicode="&#xdc;" 
d="M-319 1192v-219h-496l56 122h282v97h158z" />
    <glyph glyph-name="Yacute" unicode="&#xdd;" 
d="M-578 1093q0 52 43 81q38 25 93 25q134 0 134 -113t-134 -113h-373l56 120h181zM-395 1086q0 41 -47 41q-48 0 -48 -41q0 -39 48 -39q47 0 47 39z" />
    <glyph glyph-name="Thorn" unicode="&#xde;" 
d="M-401 1201h82v-228h-496l56 122h185v106h74q12 0 16 -8q1 -6 3 -16l4 -35l6 -22q6 -11 22 -11q22 0 22 33l6 35q6 24 20 24z" />
    <glyph glyph-name="germandbls" unicode="&#xdf;" horiz-adv-x="1053" 
d="M70 0v1123h311v101h124v-101q111 0 175 -14q198 -43 230 -253q3 -20 3 -44q0 -100 -76 -166q-39 -34 -117 -68q102 -25 166 -95q69 -75 69 -177v-17q-1 -7 -1 -11q-32 -278 -395 -278h-54v-138h-124v138h-311zM693 815q0 134 -188 134v-301q188 0 188 167zM381 648v301
h-103v-301h103zM505 169q99 0 156 34q73 43 69 129q-3 80 -74 120q-56 32 -151 32v-315zM278 484v-315h103v315h-103z" />
    <glyph glyph-name="agrave" unicode="&#xe0;" horiz-adv-x="334" 
d="M70 0v807h197v-807h-197z" />
    <glyph glyph-name="aacute" unicode="&#xe1;" horiz-adv-x="638" 
d="M267 0h-197v807h197v-807zM371 0v807h199v-807h-199z" />
    <glyph glyph-name="acircumflex" unicode="&#xe2;" horiz-adv-x="334" 
d="M224 1148h181l33 -123h-113q-94 0 -94 -49q0 -21 29 -82q7 -22 7 -48v-846h-197v846q0 40 -13 71l-31 63q-8 18 -8 39q0 68 74 102q56 27 132 27z" />
    <glyph glyph-name="atilde" unicode="&#xe3;" horiz-adv-x="334" 
d="M22 1016q-38 0 -63 -12q-12 -6 -33 -24l-68 76q98 100 249 100q76 0 134 -32q72 -38 72 -108q0 -20 -23 -75.5t-23 -99.5v-841h-197v852q0 35 25 88q4 11 4 22q0 54 -77 54z" />
    <glyph glyph-name="adieresis" unicode="&#xe4;" horiz-adv-x="334" 
d="M312 980q-22 -39 -31 -57q-14 -29 -14 -77v-846h-197v846q0 40 27 94q8 24 8 37q0 48 -94 48h-115l34 123h183q78 0 133 -27q72 -35 72 -105q0 -18 -6 -36z" />
    <glyph glyph-name="aring" unicode="&#xe5;" horiz-adv-x="555" 
d="M87 648l-50 95q132 85 266 85q183 0 183 -159v-961h-198v859q0 11 1 22q0 102 -87 102q-34 0 -71 -17q-13 -6 -44 -26z" />
    <glyph glyph-name="ae" unicode="&#xe6;" horiz-adv-x="922" 
d="M245 453q-56 59 -56 145q0 96 63 160.5t158 64.5l108 -74l106 72q234 -37 234 -286v-535h-195v544q0 61 -30 93q-31 21 -35 24l-86 -63l-85 65q-27 4 -50.5 -20t-23.5 -51t22 -53z" />
    <glyph glyph-name="ccedilla" unicode="&#xe7;" 
d="M-68 1266v-87h-354q-77 0 -78 -60q0 -16 4 -25l13 -18l127 60l83 -46q23 -10 41 -10q5 0 13 2q46 16 46 56l103 -45q0 -50 -33 -90t-82 -40q-47 0 -99 29l-74 41l-109 -51q-36 -17 -68 -17q-63 0 -102.5 44t-39.5 108q0 63 44.5 106t107.5 43h457z" />
    <glyph glyph-name="egrave" unicode="&#xe8;" 
d="M-267 1289v230h197v-230h-197z" />
    <glyph glyph-name="eacute" unicode="&#xe9;" 
d="M-215 1496q12 -21 12 -44q0 -33 -21 -59q10 2 38 7q46 8 71 16q128 41 175 96v-135q-83 -57 -202 -80q-58 -11 -164 -11q-44 0 -80 3v37q29 27 29 54q0 25 -19 39q-16 11 -42 11l37 103q28 4 58 4q33 0 46 -2q45 -9 62 -39z" />
    <glyph glyph-name="ecircumflex" unicode="&#xea;" 
d="M-179 1460q5 9 10 14q31 32 85 32q39 0 68 -25.5t29 -63.5q0 -27 -17 -53q61 19 88 83l44 -58q-13 -46 -75 -78q-56 -29 -108 -29q-30 0 -62 9q11 13 16 21q17 27 17 50q0 42 -37 42q-28 3 -50 -20l-8 -11q-8 11 -14 17q-20 18 -43 14q-31 -5 -31 -42q0 -51 37 -73h-91
q-20 14 -29 25q-29 35 -29 85q0 46 30 76.5t76 30.5q44 0 73 -23q9 -7 21 -23z" />
    <glyph glyph-name="edieresis" unicode="&#xeb;" 
d="M-74 1278h-188v89h-106v100h106v91h188v-91h107v-100h-107v-89z" />
    <glyph glyph-name="igrave" unicode="&#xec;" 
d="M-267 1289q0 123 47 165q60 54 242 54v-82q-7 1 -12 1h-8q-77 0 -77 -93v-23q1 -15 1 -22h-193z" />
    <glyph glyph-name="iacute" unicode="&#xed;" 
d="M-169 924q-73 0 -124 41q-56 44 -56 115q0 68 57 111q53 40 123 40q71 0 122 -39q55 -43 55 -112q0 -70 -54 -115q-51 -41 -123 -41zM-104 1080q0 56 -65 56q-24 0 -46 -16t-22 -40t21.5 -41.5t46.5 -17.5q65 0 65 59z" />
    <glyph glyph-name="icircumflex" unicode="&#xee;" 
d="M-41 1024q-58 -47 -166 -47q-141 0 -141 103q0 48 32 84q57 63 168 63q-31 0 -62.5 23.5t-31.5 62.5q19 86 174 109l47 2q58 2 99 -17l-51 -39l-20 5l-34 6q-16 0 -41 -7q-65 -18 -72 -69q0 -64 99 -64l-23 -47q-89 0 -139 -41q-31 -25 -31 -61q0 -23 13 -35
q20 -23 55 -23q49 0 80 29z" />
    <glyph glyph-name="idieresis" unicode="&#xef;" horiz-adv-x="1057" 
d="M549 0q-255 0 -359 209q-48 94 -48 201q0 105 46 199q103 210 361 210q256 0 362 -209q48 -95 48 -200q0 -234 -188 -351q-94 -59 -222 -59zM549 764q-222 0 -311 -179q-41 -81 -41 -175q0 -156 99 -255t253 -99q168 0 264 109q90 102 90 245q0 206 -162 305
q-81 49 -192 49zM549 176q-103 0 -168 65.5t-65 168.5q0 60 26 113q59 120 207 120t208 -120q26 -53 26 -113q0 -103 -65.5 -168.5t-168.5 -65.5z" />
    <glyph glyph-name="eth" unicode="&#xf0;" horiz-adv-x="817" 
d="M28 457q0 201 88 333q102 153 292 153q203 0 300 -149q81 -124 81 -337q0 -205 -86 -328q-99 -142 -295 -142q-198 0 -296 141q-84 122 -84 329zM408 140q179 0 179 317q0 327 -179 327q-178 0 -178 -327q0 -317 178 -317z" />
    <glyph glyph-name="ntilde" unicode="&#xf1;" horiz-adv-x="817" 
d="M148 617v146q76 9 149 55.5t111 111.5h123v-769h158v-161h-516v161h169v513q-84 -57 -194 -57z" />
    <glyph glyph-name="ograve" unicode="&#xf2;" horiz-adv-x="817" 
d="M338 360q105 71 141 104q68 63 74 119q0 184 -146 184q-75 0 -128 -63q-49 -59 -49 -136l-187 54q24 143 124.5 231t244.5 88q181 0 278 -106q82 -90 82 -220q0 -141 -144 -254q-36 -28 -134 -92q-45 -29 -82 -50q-95 -53 -100 -58h447v-161h-696v175z" />
    <glyph glyph-name="oacute" unicode="&#xf3;" horiz-adv-x="817" 
d="M405 782q-118 0 -168 -127l-187 34q42 120 138 186t224 66q131 0 231 -68q114 -76 114 -201q0 -134 -176 -191q86 -13 142 -68q61 -58 61 -142q0 -137 -117 -215q-102 -69 -245 -69q-144 0 -248 62q-117 71 -150 202l186 43q10 -53 58 -96q61 -54 146 -54q160 0 160 127
q0 75 -81 103q-60 21 -187 21v158h43q96 0 138 17q66 27 66 104q0 54 -49 84q-41 24 -99 24z" />
    <glyph glyph-name="ocircumflex" unicode="&#xf4;" horiz-adv-x="817" 
d="M648 354h130v-159h-128v-195h-179v195h-430v130l401 607h206v-578zM469 708l-228 -354h228v354z" />
    <glyph glyph-name="otilde" unicode="&#xf5;" horiz-adv-x="817" 
d="M728 767h-452l-21 -212q66 83 200 83q133 0 227 -89.5t94 -221.5q0 -155 -108 -251q-103 -93 -260 -93q-132 0 -238 69q-118 76 -135 201l175 27q14 -66 75 -105q56 -35 127 -35q73 0 124 56.5t51 130.5q0 68 -53 114.5t-122 46.5q-113 0 -161 -99l-177 41l58 502h596
v-165z" />
    <glyph glyph-name="odieresis" unicode="&#xf6;" horiz-adv-x="817" 
d="M451 613q147 0 241 -89.5t94 -235.5q0 -130 -102 -222q-99 -88 -231 -88q-215 0 -321 146q-93 128 -93 351q0 193 95 329q105 150 278 150q286 0 341 -243l-157 -39q-41 137 -174 137q-88 0 -144 -96q-48 -82 -48 -180v-14q2 -10 2 -14q90 108 219 108zM258 292
q0 -74 47.5 -120t122.5 -46q74 0 122 46.5t48 119.5q0 165 -170 165q-75 0 -122.5 -45t-47.5 -120z" />
    <glyph glyph-name="divide" unicode="&#xf7;" horiz-adv-x="817" 
d="M76 765l15 163h639v-139q-181 -236 -237 -474q-34 -143 -34 -315h-212q0 208 96 426q82 187 214 339h-481z" />
    <glyph glyph-name="oslash" unicode="&#xf8;" horiz-adv-x="817" 
d="M745 700q0 -82 -57 -137q-23 -22 -98 -65q190 -93 190 -229q0 -142 -122 -218q-102 -64 -253 -64q-146 0 -244 56q-118 68 -118 196q0 151 187 216q-79 44 -113 86q-45 55 -45 136q0 133 109 204q93 62 233 62q132 0 222 -54q109 -65 109 -189zM395 124q179 0 179 115
q0 50 -49 84q-13 9 -173 70q-133 -57 -133 -142q0 -127 176 -127zM407 811q-152 0 -152 -115q0 -71 98 -107q25 -9 96 -32q113 44 113 134q0 58 -50 91q-44 29 -105 29z" />
    <glyph glyph-name="ugrave" unicode="&#xf9;" horiz-adv-x="817" 
d="M368 321q-141 0 -234 97t-93 239q0 132 110 220q102 81 238 81q393 0 393 -512q0 -187 -100 -319q-110 -146 -291 -146q-128 0 -215 64q-91 67 -113 191l155 33q37 -145 171 -145q99 0 160 122q37 73 37 154q0 14 -1 20q-89 -99 -217 -99zM570 636q0 74 -45 122.5
t-118 48.5q-74 0 -124 -42q-53 -44 -53 -117q0 -171 165 -171q76 0 125.5 42.5t49.5 116.5z" />
    <glyph glyph-name="uacute" unicode="&#xfa;" horiz-adv-x="873" 
d="M475 819q97 0 97 -81v-537q0 -82 -47 -139q-49 -60 -129 -64l-41 72q120 19 120 133v313q-38 -69 -74 -95q-41 -30 -114 -30q-149 0 -209 128q-29 62 -29 149q0 60 48.5 105.5t109.5 45.5q127 0 127 -122q0 -56 -35 -95t-90 -39q-34 0 -61 15q15 -62 44 -86.5t91 -24.5
q87 0 157 157q35 80 35 195zM205 758q-63 0 -63 -66q0 -65 63 -65q66 0 66 65q0 66 -66 66zM721 809l96 -16v-594q0 -82 -46 -139q-50 -61 -130 -64l-41 72q121 15 121 133v608z" />
    <glyph glyph-name="ucircumflex" unicode="&#xfb;" horiz-adv-x="1637" 
d="M629 684l-6 -90q-100 72 -209 72q-138 0 -208 -125q-38 -68 -38 -178q0 -164 110 -235q56 -36 140 -36q132 0 210 118q39 58 112 204l122 -152l121 154l105 -160l125 156q122 -196 190 -196q111 0 143 202h74q-46 -278 -217 -278q-110 0 -192 163l-131 -146l-103 148
q-60 -86 -121 -139l-94 117q-99 -196 -199 -243q-64 -31 -143 -31q-194 0 -291 162q-51 84 -51 206q0 159 86 262q93 111 248 111q105 0 217 -66z" />
    <glyph glyph-name="udieresis" unicode="&#xfc;" 
d="M-70 -588h-179v110v14q1 8 1 10q0 46 -38 46h-54l34 108h131q50 0 67 -7q38 -16 38 -69v-212z" />
    <glyph glyph-name="yacute" unicode="&#xfd;" 
d="M-510 -491v17q1 12 1 18q0 54 -40 54h-45l48 107h65q105 0 104 -76q0 -7 -1 -18v-13q0 -74 57 -74q63 0 63 63v113h188v-141q0 -98 -75 -135q-52 -26 -163 -26q-68 0 -125 22q-77 31 -77 89z" />
    <glyph glyph-name="thorn" unicode="&#xfe;" 
d="M-267 -398q0 41 29.5 69.5t70.5 28.5q42 0 70.5 -28t28.5 -70t-28.5 -71t-70.5 -29q-41 0 -70.5 29.5t-29.5 70.5z" />
    <glyph glyph-name="ydieresis" unicode="&#xff;" horiz-adv-x="455" 
 />
    <glyph glyph-name="u0E00" unicode="&#xe00;" horiz-adv-x="211" 
 />
    <glyph glyph-name="afii59681" unicode="&#xe01;" horiz-adv-x="845" 
d="M70 416q0 115 82 185q-13 5 -28 8q-35 8 -56 8v87q44 36 149 74q128 47 230 47q327 0 327 -247v-578h-196v544q0 143 -150 143q-69 0 -113 -38q-48 -40 -48 -107v-542h-197v416z" />
    <glyph glyph-name="afii59682" unicode="&#xe02;" horiz-adv-x="739" 
d="M323 447q-42 -54 -52 -70q-34 -52 -34 -117q0 -134 117 -134q119 0 119 136v545h199v-532q0 -297 -312 -297q-315 0 -315 277q0 67 36 128q12 20 75 100l56 71q35 50 35 82q0 58 -63 58q-24 0 -52 -11q-10 -4 -41 -20l-37 104q23 18 68 35q63 23 134 23q138 0 164 -140
q3 -16 3 -37q0 -59 -36 -117q-12 -17 -64 -84z" />
    <glyph glyph-name="afii59683" unicode="&#xe03;" horiz-adv-x="739" 
d="M136 496q26 32 93 94q50 46 50 70q0 36 -35 36q-45 0 -77 -46q-21 17 -36 26q-49 29 -105 36l22 107q16 0 58 -18q51 -22 67 -44q43 62 125 62q15 0 34 -4q92 -19 92 -148q-4 -44 -47 -104q-9 -13 -75 -93t-66 -210q0 -134 118 -134q119 0 119 136v545h199v-532
q0 -297 -312 -297q-315 0 -315 277q0 129 91 241z" />
    <glyph glyph-name="afii59684" unicode="&#xe04;" horiz-adv-x="830" 
d="M267 397q62 82 179 82v-158q-17 3 -33 3q-65 0 -107 -54q-39 -49 -39 -116v-154h-197v535q0 163 96 233q83 60 256 60q341 0 341 -293v-535h-199v544q0 143 -144 143q-153 0 -153 -143v-147z" />
    <glyph glyph-name="afii59685" unicode="&#xe05;" horiz-adv-x="839" 
d="M267 397q62 82 179 82v-158q-17 3 -33 3q-65 0 -107 -54q-39 -49 -39 -116v-154h-197v535q0 252 245 288l107 -58l107 56q234 -37 234 -286v-535h-199v544q0 61 -28 96q-7 9 -34 27l-82 -47l-80 50q-73 -32 -73 -126v-147z" />
    <glyph glyph-name="afii59686" unicode="&#xe06;" horiz-adv-x="830" 
d="M444 142q120 0 120 166v499h199v-560q0 -264 -271 -264q-142 0 -236 171v-154h-186v247v35q-1 22 -1 34q0 116 52 180q20 25 93 93q49 46 49 69q0 37 -36 37q-43 0 -75 -45q-24 18 -40 27q-51 29 -103 35l24 109q27 -5 59 -19q46 -20 66 -45q53 62 127 62q14 0 22 -2
t12 -2q92 -22 92 -121q0 -57 -34 -98q-52 -63 -63 -78q-47 -64 -47 -127v-37q0 -75 46 -139q52 -73 131 -73z" />
    <glyph glyph-name="afii59687" unicode="&#xe07;" horiz-adv-x="826" 
d="M221 718l152 -564h41q78 0 114 85q27 63 27 152q0 276 -148 276q-11 0 -27 2q-33 0 -57 -12l-26 125q58 37 150 37q163 0 245 -135q67 -111 67 -285q0 -149 -63 -262q-77 -137 -215 -137h-251l-197 718h188z" />
    <glyph glyph-name="afii59688" unicode="&#xe08;" horiz-adv-x="837" 
d="M236 354l56 162q86 0 129 -37q38 -32 58 -100l50 -167l41 253q6 37 6 60q0 158 -175 158q-72 0 -112 -15q-69 -26 -81 -98l-169 28q26 118 137 179q95 51 227 51q363 0 363 -282q0 -45 -13 -104l-98 -442h-235l-53 187q-27 91 -50 124q-30 43 -81 43z" />
    <glyph glyph-name="afii59689" unicode="&#xe09;" horiz-adv-x="837" 
d="M769 0h-186v154q-88 -171 -231 -171q-121 0 -198.5 72.5t-77.5 193.5v210h197v-151q0 -166 126 -166q78 0 127 71q44 64 44 145v107q0 119 -23 159q-34 59 -146 59q-172 0 -193 -113l-171 28q27 117 139 178q96 52 227 52q218 0 298 -95q68 -81 68 -284v-449z" />
    <glyph glyph-name="afii59690" unicode="&#xe0a;" horiz-adv-x="739" 
d="M529 872h189q0 -53 -36 -138q-40 -95 -83 -116q15 -5 22 -10q51 -34 51 -122v-211q0 -297 -320 -297q-315 0 -315 277q0 67 36 128q10 16 75 100l57 72q35 47 35 82q0 57 -64 57q-23 0 -52 -11q-16 -6 -40 -20l-37 104q65 58 202 58q136 0 163 -140q3 -16 3 -37
q0 -59 -36 -117l-64 -84q-51 -66 -64 -91q-21 -41 -21 -96q0 -134 117 -134q126 0 126 136v189q0 56 -14 91q-9 21 -31 37q103 110 103 261q0 20 -2 32z" />
    <glyph glyph-name="afii59691" unicode="&#xe0b;" horiz-adv-x="739" 
d="M301 469q-65 -78 -65 -209q0 -134 118 -134q119 0 119 136v189q0 56 -14 91q-9 21 -31 37q103 110 103 261q0 20 -2 32h189q0 -53 -36 -138q-40 -95 -84 -116q25 -9 37 -21q37 -36 37 -111v-211q0 -297 -312 -297q-315 0 -315 277q0 129 91 241q26 32 93 94q50 46 50 70
q0 36 -35 36q-45 0 -77 -46q-21 17 -36 26q-49 29 -105 36l22 107q16 0 58 -18q51 -22 67 -44q43 62 125 62q15 0 34 -4q92 -19 92 -148q-4 -44 -47 -104q-13 -19 -76 -94z" />
    <glyph glyph-name="afii59692" unicode="&#xe0c;" horiz-adv-x="1242" 
d="M726 344q0 -198 130 -198q119 0 119 162v499h198v-560q0 -124 -68.5 -195t-191.5 -71q-137 0 -197 165v-146h-187v544q0 145 -132 145q-130 0 -130 -148v-428h93v-113h-290v416q0 115 82 185q-13 5 -28 8q-35 8 -56 8v87q47 37 135 74q111 47 196 47q327 0 327 -247v-234
z" />
    <glyph glyph-name="afii59693" unicode="&#xe0d;" horiz-adv-x="1242" 
d="M988 121q-27 -47 -49 -69q-67 -69 -157 -69q-116 0 -183 59q-70 62 -70 177v325q0 145 -132 145q-130 0 -130 -148v-428h93v-113h-290v416q0 115 82 185q-13 5 -28 8q-35 8 -56 8v87q47 37 135 74q111 47 196 47q327 0 327 -247v-279q0 -153 120 -153q129 0 129 166v495
h198v-774q0 -158 -114 -242q-101 -75 -265 -75q-78 0 -172 33q-83 29 -106 52l76 145q9 -43 85 -75q64 -27 115 -27q133 0 174 97q22 52 22 180z" />
    <glyph glyph-name="afii59694" unicode="&#xe0e;" horiz-adv-x="846" 
d="M206 -150l91 84l92 -84h78q66 0 84 15q28 23 28 106v573q0 143 -149 143q-69 0 -114 -39t-45 -106v-542h-284v113h85v303q0 111 84 185q-14 5 -29 8q-36 8 -55 8v87q44 35 148 74q127 47 231 47q327 0 327 -247v-689q0 -184 -227 -184h-176l-78 69l-78 -69h-215v145h202z
" />
    <glyph glyph-name="afii59695" unicode="&#xe0f;" horiz-adv-x="846" 
d="M579 -29v573q0 143 -149 143q-69 0 -114 -39t-45 -106v-542h-284v113h85v303q0 111 84 185q-14 5 -29 8q-36 8 -55 8v87q44 35 148 74q127 47 231 47q327 0 327 -247v-689q0 -184 -227 -184h-100l-62 63l-62 -63h-60l-61 63l-62 -63h-140v145h111l91 80l91 -80l92 80
l92 -80q54 0 71 15q27 24 27 106z" />
    <glyph glyph-name="afii59696" unicode="&#xe10;" horiz-adv-x="865" 
d="M718 722q89 -89 89 -323q0 -148 -80 -266q-91 -133 -233 -133h-202q-16 49 -49 190q-23 97 -43 131q-29 49 -81 49l54 152q109 0 153 -46q26 -28 44 -93l62 -229h21q75 0 119 86q35 69 35 151q0 139 -33 205q-47 91 -169 91q-166 0 -193 -117l-169 28q26 120 136 182
q95 53 228 53q106 0 180 -27q46 22 46 95h174q0 -126 -89 -179zM802 -41v-78q0 -184 -224 -184h-109l-80 67l-79 -67h-176v145h156l99 84l99 -84h39q84 0 84 95v22h191z" />
    <glyph glyph-name="afii59697" unicode="&#xe11;" horiz-adv-x="876" 
d="M115 522q-36 146 -128 157l50 132q30 0 83 -44.5t53 -72.5l48 113h92v-142q88 160 226 160q268 0 268 -265v-560h-198v502q0 165 -119 165q-75 0 -128 -72q-49 -66 -49 -144v-451h-198v522z" />
    <glyph glyph-name="afii59698" unicode="&#xe12;" horiz-adv-x="1303" 
d="M592 661l-94 -62q-38 71 -103 71q-17 0 -35 -7q-115 -44 -115 -249q0 -274 160 -276q6 0 14 -1h9q27 0 46 7q6 2 14 8l24 -123q-52 -44 -148 -44q-165 0 -253 134q-76 115 -76 288q0 172 81 286q91 128 257 128q84 0 139 -80l84 65h192v-474q0 -67 35 -124
q40 -66 103 -66q111 0 111 168v496h198v-565q0 -267 -260 -267q-62 0 -120 53q-49 45 -77 109v-140h-186v665z" />
    <glyph glyph-name="afii59699" unicode="&#xe13;" horiz-adv-x="1242" 
d="M360 0h-290v416q0 115 82 185q-13 5 -28 8q-35 8 -56 8v87q47 37 135 74q111 47 196 47q327 0 327 -247v-279q0 -153 120 -153q129 0 129 166v495h198v-807h-175l-10 128q-76 -145 -206 -145q-119 0 -186 67.5t-67 186.5v307q0 145 -132 145q-130 0 -130 -148v-428h93
v-113z" />
    <glyph glyph-name="afii59700" unicode="&#xe14;" horiz-adv-x="865" 
d="M498 156l22 -123q-50 -44 -149 -44q-165 0 -256 133q-80 115 -80 288q0 188 112 303t300 115q149 0 245 -73q106 -81 106 -226v-529h-199v486q0 193 -150 193q-208 0 -208 -261q0 -262 173 -278q46 0 73 10q5 1 11 6z" />
    <glyph glyph-name="afii59701" unicode="&#xe15;" horiz-adv-x="865" 
d="M371 -11q-164 0 -251 134q-75 115 -75 287q0 167 77 282q90 133 249 133q96 0 149 -80l85 62h193v-807h-199v665l-91 -64q-39 72 -104 72q-16 0 -33 -6q-118 -42 -118 -249q0 -278 161 -278q38 0 65 8q9 3 19 8l22 -123q-50 -44 -149 -44z" />
    <glyph glyph-name="afii59702" unicode="&#xe16;" horiz-adv-x="845" 
d="M267 113h130v-113h-327v416q0 115 82 185q-13 5 -28 8q-35 8 -56 8v87q44 36 149 74q128 47 230 47q327 0 327 -247v-578h-196v544q0 143 -150 143q-69 0 -113 -38q-48 -40 -48 -107v-429z" />
    <glyph glyph-name="afii59703" unicode="&#xe17;" horiz-adv-x="830" 
d="M267 0h-197v807h186v-152q92 170 236 170q271 0 271 -265v-560h-199v502q0 165 -118 165q-76 0 -130 -73q-49 -66 -49 -145v-449z" />
    <glyph glyph-name="afii59704" unicode="&#xe18;" horiz-adv-x="804" 
d="M191 386q-69 37 -97 70q-40 47 -40 118q0 241 341 241q86 0 162 -2l157 -6l-33 -150h-288q-122 0 -122 -61q0 -55 126 -84q189 -44 218 -57q131 -60 131 -214q0 -15 -3 -46q-10 -98 -86 -150q-68 -45 -171 -45h-420v278h187v-117h174q59 0 81 10q33 15 33 61
q6 58 -122 88q-186 43 -228 66z" />
    <glyph glyph-name="afii59705" unicode="&#xe19;" horiz-adv-x="830" 
d="M763 0h-176l-9 154q-89 -171 -231 -171q-122 0 -198 72q-79 73 -79 194v558h197v-499q0 -166 126 -166q77 0 127 72q44 63 44 144v449h199v-807z" />
    <glyph glyph-name="afii59706" unicode="&#xe1a;" horiz-adv-x="830" 
d="M267 262q0 -128 149 -128q148 0 148 128v545h199v-532q0 -297 -341 -297q-174 0 -257 62q-95 70 -95 235v532h197v-545z" />
    <glyph glyph-name="afii59707" unicode="&#xe1b;" horiz-adv-x="846" 
d="M267 262q0 -128 157 -128q155 0 155 128v886h199v-873q0 -297 -348 -297q-175 0 -260 61q-100 71 -100 236v532h197v-545z" />
    <glyph glyph-name="afii59708" unicode="&#xe1c;" horiz-adv-x="954" 
d="M325 130q56 0 56 69v373h189v-372q0 -72 65 -72q52 0 52 71v608h198v-532q0 -149 -39 -214q-50 -83 -179 -83q-49 0 -103 30.5t-83 71.5q-23 -42 -75 -72t-100 -30q-154 0 -208 104q-46 89 -46 317q0 420 261 420q88 0 136 -37l-21 -110q-4 2 -9 2q-22 5 -65 5
q-93 0 -108 -131q-5 -44 -5 -157q0 -126 4 -154q16 -107 80 -107z" />
    <glyph glyph-name="afii59709" unicode="&#xe1d;" horiz-adv-x="954" 
d="M325 130q56 0 56 69v373h189v-372q0 -72 65 -72q52 0 52 71v949h198v-873q0 -149 -39 -214q-50 -83 -179 -83q-49 0 -103 30.5t-83 71.5q-23 -42 -75 -72t-100 -30q-154 0 -208 104q-46 89 -46 317q0 420 261 420q88 0 136 -37l-21 -110q-4 2 -9 2q-22 5 -65 5
q-93 0 -108 -131q-5 -44 -5 -157q0 -126 4 -154q16 -107 80 -107z" />
    <glyph glyph-name="afii59710" unicode="&#xe1e;" horiz-adv-x="954" 
d="M481 80q-60 -102 -175 -102q-139 0 -193 84q-43 66 -43 213v532h197v-607q0 -70 58 -70q52 0 52 69v608h199v-607q0 -70 59 -70q52 0 52 69v608h198v-532q0 -149 -39 -214q-50 -83 -181 -83q-106 0 -184 102z" />
    <glyph glyph-name="afii59711" unicode="&#xe1f;" horiz-adv-x="954" 
d="M481 80q-60 -102 -175 -102q-139 0 -193 84q-43 66 -43 213v532h197v-607q0 -70 58 -70q52 0 52 69v608h199v-607q0 -70 59 -70q52 0 52 69v949h198v-873q0 -149 -39 -214q-50 -83 -181 -83q-106 0 -184 102z" />
    <glyph glyph-name="afii59712" unicode="&#xe20;" horiz-adv-x="846" 
d="M-13 0v113h85v303q0 111 84 185q-14 5 -29 8q-36 8 -55 8v87q44 35 148 74q127 47 231 47q327 0 327 -247v-578h-199v544q0 143 -149 143q-69 0 -114 -39t-45 -106v-542h-284z" />
    <glyph glyph-name="afii59713" unicode="&#xe21;" horiz-adv-x="830" 
d="M267 360q0 -78 50 -145q54 -73 129 -73q118 0 118 166v499h199v-560q0 -264 -271 -264q-142 0 -236 171v-154h-186v807h197v-447z" />
    <glyph glyph-name="afii59714" unicode="&#xe22;" horiz-adv-x="826" 
d="M449 782l-37 -121q-54 26 -94 26q-82 0 -82 -71q-1 -10 -1 -15q0 -57 65 -87q50 -24 114 -24v-109q-65 0 -94 -13q-48 -21 -58 -82q-2 -12 -2 -25q0 -133 164 -133q136 0 136 164v515h199v-542q0 -287 -337 -287q-374 0 -374 277q0 72 52 128q16 18 52 41
q-111 38 -111 200q0 91 57.5 145t148.5 54q127 0 202 -41z" />
    <glyph glyph-name="afii59715" unicode="&#xe23;" horiz-adv-x="817" 
d="M546 587q-24 92 -138 92q-137 0 -137 -83q0 -54 134 -84q191 -43 226 -61q128 -66 128 -196q0 -140 -107 -215q-93 -64 -240 -64q-270 0 -351 160q-19 38 -22 70l187 31q18 -109 190 -109q141 0 141 86q0 61 -126 89q-182 41 -223 63q-124 68 -124 185q0 141 95 213
q85 64 231 64q113 0 198 -50q94 -57 120 -160z" />
    <glyph glyph-name="afii59716" unicode="&#xe24;" horiz-adv-x="845" 
d="M267 113h130v-113h-327v416q0 115 82 185q-13 5 -28 8q-35 8 -56 8v87q44 36 149 74q128 47 230 47q327 0 327 -247v-870h-196v836q0 143 -150 143q-69 0 -113 -38q-48 -40 -48 -107v-429z" />
    <glyph glyph-name="afii59717" unicode="&#xe25;" horiz-adv-x="846" 
d="M778 559v-559h-199v395q-141 0 -208 -19q-126 -36 -126 -140q0 -54 42 -84q38 -27 94 -27t102 29l19 -109q-64 -67 -201 -67q-113 0 -189.5 71t-76.5 183q0 207 300 260q86 15 189 15q37 0 55 -2v63q0 115 -171 115q-137 0 -165 -111l-175 26q58 230 378 230
q332 0 332 -269z" />
    <glyph glyph-name="afii59718" unicode="&#xe26;" horiz-adv-x="846" 
d="M-13 0v113h85v303q0 111 84 185q-14 5 -29 8q-36 8 -55 8v87q44 35 148 74q127 47 231 47q327 0 327 -247v-870h-199v836q0 143 -149 143q-69 0 -114 -39t-45 -106v-542h-284z" />
    <glyph glyph-name="afii59719" unicode="&#xe27;" horiz-adv-x="876" 
d="M412 117q206 0 206 291q0 266 -200 266q-69 0 -121.5 -46.5t-60.5 -115.5l-182 15q19 133 124 217q102 81 238 81q195 0 305 -122q105 -117 105 -314q0 -188 -105 -300q-108 -115 -294 -115q-297 0 -359 297l181 23q0 -66 48 -120q50 -57 115 -57z" />
    <glyph glyph-name="afii59720" unicode="&#xe28;" horiz-adv-x="830" 
d="M763 535v-535h-199v544q0 143 -144 143q-153 0 -153 -143v-147q62 82 179 82v-158q-17 3 -33 3q-65 0 -107 -54q-39 -49 -39 -116v-154h-197v535q0 163 96 233q83 60 256 60q73 0 135 -13q21 -5 46 -13q28 44 92 71q59 24 116 24l17 -156q-28 4 -47 4q-52 0 -69 -21
q17 -24 25 -45q26 -63 26 -144z" />
    <glyph glyph-name="afii59721" unicode="&#xe29;" horiz-adv-x="830" 
d="M564 371h-52q-54 0 -110 20q-70 26 -83 68l105 120q4 -33 57 -57q44 -20 83 -20v305h199v-305h106v-131h-106v-96q0 -297 -341 -297q-174 0 -257 62q-95 70 -95 235v532h197v-545q0 -128 149 -128q148 0 148 128v109z" />
    <glyph glyph-name="afii59722" unicode="&#xe2a;" horiz-adv-x="846" 
d="M778 559v-559h-199v395q-141 0 -208 -19q-126 -36 -126 -140q0 -54 42 -84q38 -27 94 -27t102 29l19 -109q-64 -67 -201 -67q-113 0 -189.5 71t-76.5 183q0 207 300 260q86 15 189 15q37 0 55 -2v63q0 115 -171 115q-137 0 -165 -111l-175 26q58 230 378 230
q73 0 132 -14q22 -5 42 -14q26 42 87 70q57 26 110 26q11 0 16 -1l15 -156q-22 4 -46 4q-54 0 -71 -21q15 -21 23 -39q24 -56 24 -124z" />
    <glyph glyph-name="afii59723" unicode="&#xe2b;" horiz-adv-x="830" 
d="M267 0h-197v807h197v-285q57 61 173 111q141 61 141 174h203q0 -43 -36 -97q-46 -69 -122 -103q45 -16 68 -36q69 -61 69 -178v-393h-199v340q0 165 -118 165q-75 0 -130 -81q-49 -72 -49 -151v-273z" />
    <glyph glyph-name="afii59724" unicode="&#xe2c;" horiz-adv-x="954" 
d="M481 78q-58 -100 -160 -100q-159 0 -212 83q-39 61 -39 214v532h197v-607q0 -70 58 -70q52 0 52 69v451h199v-450q0 -70 59 -70q52 0 52 69l2 379q1 99 -76 113v48q31 15 46 30q28 29 28 77v58h198v-59q0 -88 -60 -129q11 -5 18 -11q42 -37 42 -118v-312q0 -154 -37 -214
q-51 -83 -202 -83q-90 0 -165 100z" />
    <glyph glyph-name="afii59725" unicode="&#xe2d;" horiz-adv-x="895" 
d="M66 449h376v-128h-184q0 -87 52.5 -145.5t138.5 -58.5q187 0 187 266q0 291 -206 291q-135 0 -179 -135l-181 25q40 126 138 193.5t232 67.5q188 0 295 -119q102 -114 102 -305q0 -189 -104 -306q-108 -121 -295 -121q-196 0 -292 146q-80 122 -80 329z" />
    <glyph glyph-name="afii59726" unicode="&#xe2e;" horiz-adv-x="895" 
d="M837 401q0 -188 -103 -305q-108 -122 -294 -122q-197 0 -292 145q-80 122 -80 330h378v-128h-186q0 -87 51 -146q54 -62 140 -62q191 0 191 270q0 291 -208 291q-137 0 -181 -135l-181 25q86 261 372 261q71 0 135 -19q22 -7 50 -20q27 49 86 79q56 29 115 29q12 0 18 -1
l16 -154q-18 4 -44 4q-61 0 -89 -35q7 -4 27 -32q79 -109 79 -275z" />
    <glyph glyph-name="afii59727" unicode="&#xe2f;" horiz-adv-x="826" 
d="M560 0v434q-33 -25 -57 -37q-73 -37 -156 -37q-283 0 -306 218q-1 9 -1 22q0 105 83 168q75 57 183 57q115 0 184 -60l-35 -93q-41 22 -92 22q-131 0 -131 -110v-12q0 -95 135 -95q68 0 125 31q68 37 68 99v200h199v-807h-199z" />
    <glyph glyph-name="afii59729" unicode="&#xe30;" horiz-adv-x="436" 
d="M249 663h130v-145h-188q-60 0 -114.5 35.5t-76.5 90.5l146 99q0 -33 36 -58q33 -22 67 -22zM249 224h130v-146h-188q-59 0 -114 36t-77 90l146 99q0 -33 36 -57q32 -22 67 -22z" />
    <glyph glyph-name="afii59728" unicode="&#xe31;" 
d="M-273 973q-56 0 -118 29q-73 34 -80 82l135 95q16 -35 70 -60q48 -22 91 -22h296v-124h-394z" />
    <glyph glyph-name="afii59730" unicode="&#xe32;" horiz-adv-x="555" 
d="M87 648l-50 95q132 85 266 85q183 0 183 -159v-669h-198v567q0 11 1 22q0 102 -87 102q-34 0 -71 -17q-13 -6 -44 -26z" />
    <glyph glyph-name="afii59731" unicode="&#xe33;" horiz-adv-x="555" 
d="M-169 924q-73 0 -124 41q-56 44 -56 115q0 68 57 111q53 40 123 40q71 0 122 -39q55 -43 55 -112q0 -70 -54 -115q-51 -41 -123 -41zM87 648l-50 95q132 85 266 85q183 0 183 -159v-669h-198v567q0 11 1 22q0 102 -87 102q-34 0 -71 -17q-13 -6 -44 -26zM-104 1080
q0 56 -65 56q-24 0 -46 -16t-22 -40t21.5 -41.5t46.5 -17.5q65 0 65 59z" />
    <glyph glyph-name="afii59732" unicode="&#xe34;" 
d="M-716 1095h646v-122h-702z" />
    <glyph glyph-name="afii59733" unicode="&#xe35;" 
d="M-70 1216v-243h-702l56 122h449v121h197z" />
    <glyph glyph-name="afii59734" unicode="&#xe36;" 
d="M-358 1093q-6 59 45 96q45 31 107 31q146 0 146 -123q0 -124 -146 -124h-594l57 120h385zM-152 1097q0 43 -54 43q-59 0 -59 -43t59 -43q54 0 54 43z" />
    <glyph glyph-name="afii59735" unicode="&#xe37;" 
d="M-146 1216h76v-243h-702l56 122h378v121h80q20 0 22 -24l4 -50q3 -33 30 -33q23 0 27 33l6 50q3 24 23 24z" />
    <glyph glyph-name="afii59736" unicode="&#xe38;" 
d="M-70 -377h-179v110v14q1 8 1 10q0 46 -38 46h-54l34 108h131q50 0 67 -7q38 -16 38 -69v-212z" />
    <glyph glyph-name="afii59737" unicode="&#xe39;" 
d="M-510 -280v17q1 12 1 18q0 54 -40 54h-45l48 107h65q105 0 104 -76q0 -7 -1 -18v-13q0 -74 57 -74q63 0 63 63v113h188v-141q0 -98 -75 -135q-52 -26 -163 -26q-68 0 -125 22q-77 31 -77 89z" />
    <glyph glyph-name="afii59738" unicode="&#xe3a;" 
d="M-267 -180q0 41 29.5 69.5t70.5 28.5q42 0 70.5 -28t28.5 -70t-28.5 -71t-70.5 -29q-41 0 -70.5 29.5t-29.5 70.5z" />
    <glyph glyph-name="afii59743" unicode="&#xe3f;" horiz-adv-x="1053" 
d="M70 0v1123h311v101h124v-101q111 0 175 -14q198 -43 230 -253q3 -20 3 -44q0 -100 -76 -166q-39 -34 -117 -68q102 -25 166 -95q69 -75 69 -177v-17q-1 -7 -1 -11q-32 -278 -395 -278h-54v-138h-124v138h-311zM693 815q0 134 -188 134v-301q188 0 188 167zM381 648v301
h-103v-301h103zM505 169q99 0 156 34q73 43 69 129q-3 80 -74 120q-56 32 -151 32v-315zM278 484v-315h103v315h-103z" />
    <glyph glyph-name="afii59744" unicode="&#xe40;" horiz-adv-x="334" 
d="M70 0v807h197v-807h-197z" />
    <glyph glyph-name="afii59745" unicode="&#xe41;" horiz-adv-x="638" 
d="M267 0h-197v807h197v-807zM371 0v807h199v-807h-199z" />
    <glyph glyph-name="afii59746" unicode="&#xe42;" horiz-adv-x="334" 
d="M224 1148h181l33 -123h-113q-94 0 -94 -49q0 -21 29 -82q7 -22 7 -48v-846h-197v846q0 40 -13 71l-31 63q-8 18 -8 39q0 68 74 102q56 27 132 27z" />
    <glyph glyph-name="afii59747" unicode="&#xe43;" horiz-adv-x="334" 
d="M22 1016q-38 0 -63 -12q-12 -6 -33 -24l-68 76q98 100 249 100q76 0 134 -32q72 -38 72 -108q0 -20 -23 -75.5t-23 -99.5v-841h-197v852q0 35 25 88q4 11 4 22q0 54 -77 54z" />
    <glyph glyph-name="afii59748" unicode="&#xe44;" horiz-adv-x="334" 
d="M312 980q-22 -39 -31 -57q-14 -29 -14 -77v-846h-197v846q0 40 27 94q8 24 8 37q0 48 -94 48h-115l34 123h183q78 0 133 -27q72 -35 72 -105q0 -18 -6 -36z" />
    <glyph glyph-name="afii59749" unicode="&#xe45;" horiz-adv-x="555" 
d="M87 648l-50 95q132 85 266 85q183 0 183 -159v-961h-198v859q0 11 1 22q0 102 -87 102q-34 0 -71 -17q-13 -6 -44 -26z" />
    <glyph glyph-name="afii59750" unicode="&#xe46;" horiz-adv-x="922" 
d="M245 453q-56 59 -56 145q0 96 63 160.5t158 64.5l108 -74l106 72q234 -37 234 -286v-535h-195v544q0 61 -30 93q-31 21 -35 24l-86 -63l-85 65q-27 4 -50.5 -20t-23.5 -51t22 -53z" />
    <glyph glyph-name="afii59751" unicode="&#xe47;" 
d="M-68 1266v-87h-354q-77 0 -78 -60q0 -16 4 -25l13 -18l127 60l83 -46q23 -10 41 -10q5 0 13 2q46 16 46 56l103 -45q0 -50 -33 -90t-82 -40q-47 0 -99 29l-74 41l-109 -51q-36 -17 -68 -17q-63 0 -102.5 44t-39.5 108q0 63 44.5 106t107.5 43h457z" />
    <glyph glyph-name="afii59752" unicode="&#xe48;" 
d="M-267 1289v230h197v-230h-197z" />
    <glyph glyph-name="afii59753" unicode="&#xe49;" 
d="M-215 1496q12 -21 12 -44q0 -33 -21 -59q10 2 38 7q46 8 71 16q128 41 175 96v-135q-83 -57 -202 -80q-58 -11 -164 -11q-44 0 -80 3v37q29 27 29 54q0 25 -19 39q-16 11 -42 11l37 103q28 4 58 4q33 0 46 -2q45 -9 62 -39z" />
    <glyph glyph-name="afii59754" unicode="&#xe4a;" 
d="M-179 1460q5 9 10 14q31 32 85 32q39 0 68 -25.5t29 -63.5q0 -27 -17 -53q61 19 88 83l44 -58q-13 -46 -75 -78q-56 -29 -108 -29q-30 0 -62 9q11 13 16 21q17 27 17 50q0 42 -37 42q-28 3 -50 -20l-8 -11q-8 11 -14 17q-20 18 -43 14q-31 -5 -31 -42q0 -51 37 -73h-91
q-20 14 -29 25q-29 35 -29 85q0 46 30 76.5t76 30.5q44 0 73 -23q9 -7 21 -23z" />
    <glyph glyph-name="afii59755" unicode="&#xe4b;" 
d="M-74 1278h-188v89h-106v100h106v91h188v-91h107v-100h-107v-89z" />
    <glyph glyph-name="afii59756" unicode="&#xe4c;" 
d="M-267 1289q0 123 47 165q60 54 242 54v-82q-7 1 -12 1h-8q-77 0 -77 -93v-23q1 -15 1 -22h-193z" />
    <glyph glyph-name="afii59757" unicode="&#xe4d;" 
d="M-169 924q-73 0 -124 41q-56 44 -56 115q0 68 57 111q53 40 123 40q71 0 122 -39q55 -43 55 -112q0 -70 -54 -115q-51 -41 -123 -41zM-104 1080q0 56 -65 56q-24 0 -46 -16t-22 -40t21.5 -41.5t46.5 -17.5q65 0 65 59z" />
    <glyph glyph-name="afii59758" unicode="&#xe4e;" 
d="M-41 1024q-58 -47 -166 -47q-141 0 -141 103q0 48 32 84q57 63 168 63q-31 0 -62.5 23.5t-31.5 62.5q19 86 174 109l47 2q58 2 99 -17l-51 -39l-20 5l-34 6q-16 0 -41 -7q-65 -18 -72 -69q0 -64 99 -64l-23 -47q-89 0 -139 -41q-31 -25 -31 -61q0 -23 13 -35
q20 -23 55 -23q49 0 80 29z" />
    <glyph glyph-name="afii59759" unicode="&#xe4f;" horiz-adv-x="1057" 
d="M549 0q-255 0 -359 209q-48 94 -48 201q0 105 46 199q103 210 361 210q256 0 362 -209q48 -95 48 -200q0 -234 -188 -351q-94 -59 -222 -59zM549 764q-222 0 -311 -179q-41 -81 -41 -175q0 -156 99 -255t253 -99q168 0 264 109q90 102 90 245q0 206 -162 305
q-81 49 -192 49zM549 176q-103 0 -168 65.5t-65 168.5q0 60 26 113q59 120 207 120t208 -120q26 -53 26 -113q0 -103 -65.5 -168.5t-168.5 -65.5z" />
    <glyph glyph-name="afii59760" unicode="&#xe50;" horiz-adv-x="817" 
d="M28 457q0 201 88 333q102 153 292 153q203 0 300 -149q81 -124 81 -337q0 -205 -86 -328q-99 -142 -295 -142q-198 0 -296 141q-84 122 -84 329zM408 140q179 0 179 317q0 327 -179 327q-178 0 -178 -327q0 -317 178 -317z" />
    <glyph glyph-name="afii59761" unicode="&#xe51;" horiz-adv-x="817" 
d="M148 617v146q76 9 149 55.5t111 111.5h123v-769h158v-161h-516v161h169v513q-84 -57 -194 -57z" />
    <glyph glyph-name="afii59762" unicode="&#xe52;" horiz-adv-x="817" 
d="M338 360q105 71 141 104q68 63 74 119q0 184 -146 184q-75 0 -128 -63q-49 -59 -49 -136l-187 54q24 143 124.5 231t244.5 88q181 0 278 -106q82 -90 82 -220q0 -141 -144 -254q-36 -28 -134 -92q-45 -29 -82 -50q-95 -53 -100 -58h447v-161h-696v175z" />
    <glyph glyph-name="afii59763" unicode="&#xe53;" horiz-adv-x="817" 
d="M405 782q-118 0 -168 -127l-187 34q42 120 138 186t224 66q131 0 231 -68q114 -76 114 -201q0 -134 -176 -191q86 -13 142 -68q61 -58 61 -142q0 -137 -117 -215q-102 -69 -245 -69q-144 0 -248 62q-117 71 -150 202l186 43q10 -53 58 -96q61 -54 146 -54q160 0 160 127
q0 75 -81 103q-60 21 -187 21v158h43q96 0 138 17q66 27 66 104q0 54 -49 84q-41 24 -99 24z" />
    <glyph glyph-name="afii59764" unicode="&#xe54;" horiz-adv-x="817" 
d="M648 354h130v-159h-128v-195h-179v195h-430v130l401 607h206v-578zM469 708l-228 -354h228v354z" />
    <glyph glyph-name="afii59765" unicode="&#xe55;" horiz-adv-x="817" 
d="M728 767h-452l-21 -212q66 83 200 83q133 0 227 -89.5t94 -221.5q0 -155 -108 -251q-103 -93 -260 -93q-132 0 -238 69q-118 76 -135 201l175 27q14 -66 75 -105q56 -35 127 -35q73 0 124 56.5t51 130.5q0 68 -53 114.5t-122 46.5q-113 0 -161 -99l-177 41l58 502h596
v-165z" />
    <glyph glyph-name="afii59766" unicode="&#xe56;" horiz-adv-x="817" 
d="M451 613q147 0 241 -89.5t94 -235.5q0 -130 -102 -222q-99 -88 -231 -88q-215 0 -321 146q-93 128 -93 351q0 193 95 329q105 150 278 150q286 0 341 -243l-157 -39q-41 137 -174 137q-88 0 -144 -96q-48 -82 -48 -180v-14q2 -10 2 -14q90 108 219 108zM258 292
q0 -74 47.5 -120t122.5 -46q74 0 122 46.5t48 119.5q0 165 -170 165q-75 0 -122.5 -45t-47.5 -120z" />
    <glyph glyph-name="afii59767" unicode="&#xe57;" horiz-adv-x="817" 
d="M76 765l15 163h639v-139q-181 -236 -237 -474q-34 -143 -34 -315h-212q0 208 96 426q82 187 214 339h-481z" />
    <glyph glyph-name="afii59768" unicode="&#xe58;" horiz-adv-x="817" 
d="M745 700q0 -82 -57 -137q-23 -22 -98 -65q190 -93 190 -229q0 -142 -122 -218q-102 -64 -253 -64q-146 0 -244 56q-118 68 -118 196q0 151 187 216q-79 44 -113 86q-45 55 -45 136q0 133 109 204q93 62 233 62q132 0 222 -54q109 -65 109 -189zM395 124q179 0 179 115
q0 50 -49 84q-13 9 -173 70q-133 -57 -133 -142q0 -127 176 -127zM407 811q-152 0 -152 -115q0 -71 98 -107q25 -9 96 -32q113 44 113 134q0 58 -50 91q-44 29 -105 29z" />
    <glyph glyph-name="afii59769" unicode="&#xe59;" horiz-adv-x="817" 
d="M368 321q-141 0 -234 97t-93 239q0 132 110 220q102 81 238 81q393 0 393 -512q0 -187 -100 -319q-110 -146 -291 -146q-128 0 -215 64q-91 67 -113 191l155 33q37 -145 171 -145q99 0 160 122q37 73 37 154q0 14 -1 20q-89 -99 -217 -99zM570 636q0 74 -45 122.5
t-118 48.5q-74 0 -124 -42q-53 -44 -53 -117q0 -171 165 -171q76 0 125.5 42.5t49.5 116.5z" />
    <glyph glyph-name="afii59770" unicode="&#xe5a;" horiz-adv-x="873" 
d="M475 819q97 0 97 -81v-537q0 -82 -47 -139q-49 -60 -129 -64l-41 72q120 19 120 133v313q-38 -69 -74 -95q-41 -30 -114 -30q-149 0 -209 128q-29 62 -29 149q0 60 48.5 105.5t109.5 45.5q127 0 127 -122q0 -56 -35 -95t-90 -39q-34 0 -61 15q15 -62 44 -86.5t91 -24.5
q87 0 157 157q35 80 35 195zM205 758q-63 0 -63 -66q0 -65 63 -65q66 0 66 65q0 66 -66 66zM721 809l96 -16v-594q0 -82 -46 -139q-50 -61 -130 -64l-41 72q121 15 121 133v608z" />
    <glyph glyph-name="afii59771" unicode="&#xe5b;" horiz-adv-x="1637" 
d="M629 684l-6 -90q-100 72 -209 72q-138 0 -208 -125q-38 -68 -38 -178q0 -164 110 -235q56 -36 140 -36q132 0 210 118q39 58 112 204l122 -152l121 154l105 -160l125 156q122 -196 190 -196q111 0 143 202h74q-46 -278 -217 -278q-110 0 -192 163l-131 -146l-103 148
q-60 -86 -121 -139l-94 117q-99 -196 -199 -243q-64 -31 -143 -31q-194 0 -291 162q-51 84 -51 206q0 159 86 262q93 111 248 111q105 0 217 -66z" />
    <glyph glyph-name="uF700" unicode="&#xf700;" horiz-adv-x="865" 
d="M718 722q89 -89 89 -323q0 -148 -80 -266q-91 -133 -233 -133h-202q-16 49 -49 190q-23 97 -43 131q-29 49 -81 49l54 152q109 0 153 -46q26 -28 44 -93l62 -229h21q75 0 119 86q35 69 35 151q0 139 -33 205q-47 91 -169 91q-166 0 -193 -117l-169 28q26 120 136 182
q95 53 228 53q106 0 180 -27q46 22 46 95h174q0 -126 -89 -179z" />
    <glyph glyph-name="uF701" unicode="&#xf701;" 
d="M-759 1095h440v-122h-496z" />
    <glyph glyph-name="uF702" unicode="&#xf702;" 
d="M-319 1192v-219h-496l56 122h282v97h158z" />
    <glyph glyph-name="uF703" unicode="&#xf703;" 
d="M-578 1093q0 52 43 81q38 25 93 25q134 0 134 -113t-134 -113h-373l56 120h181zM-395 1086q0 41 -47 41q-48 0 -48 -41q0 -39 48 -39q47 0 47 39z" />
    <glyph glyph-name="uF704" unicode="&#xf704;" 
d="M-401 1201h82v-228h-496l56 122h185v106h74q12 0 16 -8q1 -6 3 -16l4 -35l6 -22q6 -11 22 -11q22 0 22 33l6 35q6 24 20 24z" />
    <glyph glyph-name="uF705" unicode="&#xf705;" 
d="M-549 973v232h198v-232h-198z" />
    <glyph glyph-name="uF706" unicode="&#xf706;" 
d="M-531 1178q12 -22 12 -49q0 -35 -20 -61q14 3 23 4q138 29 234 94v-137q-99 -43 -173 -58q-44 -9 -159 -9h-54q-20 0 -40 1v39q29 24 29 68q-6 39 -62 39l37 107q16 6 61 6q90 0 112 -44z" />
    <glyph glyph-name="uF707" unicode="&#xf707;" 
d="M-618 1151q12 18 22 26q32 26 82 26q43 0 74.5 -28.5t31.5 -71.5q0 -29 -19 -58q23 6 35 14q39 25 61 77l49 -64q-12 -39 -66 -74q-63 -41 -134 -41q-36 0 -69 10q12 13 18 22q19 28 19 54q0 47 -45 47q-26 0 -45 -18q-6 -5 -14 -18q-7 12 -13 18q-18 18 -46 18
q-37 0 -37 -47q0 -55 39 -80h-99q-21 14 -32 28q-33 41 -33 95q0 49 34 83t83 34q46 0 80 -26q12 -9 24 -26z" />
    <glyph glyph-name="uF708" unicode="&#xf708;" 
d="M-416 973h-182v85h-98v95h98v87h182v-87h99v-95h-99v-85z" />
    <glyph glyph-name="uF709" unicode="&#xf709;" 
d="M-587 973q0 134 47 181q61 60 248 60v-89q-6 1 -17 1q-51 0 -68 -34q-12 -24 -12 -82v-37h-198z" />
    <glyph glyph-name="uF70A" unicode="&#xf70a;" 
d="M-267 973v232h197v-232h-197z" />
    <glyph glyph-name="uF70B" unicode="&#xf70b;" 
d="M-219 1204q12 -24 12 -54q0 -39 -23 -68l45 8q105 20 203 75q62 34 79 55v-156q-92 -64 -233 -91q-58 -11 -187 -11h-48q-6 0 -18 1h-18h-9v43q33 31 33 76q-11 45 -70 45l41 117q28 7 68 7q25 0 48 -3q58 -8 77 -44z" />
    <glyph glyph-name="uF70C" unicode="&#xf70c;" 
d="M-446 1171q14 20 24 28q36 28 91 28q47 0 84 -32t37 -78q0 -32 -22 -66q37 11 56 28q32 28 52 77l54 -74q-12 -43 -73 -83q-71 -47 -151 -47q-40 0 -76 11q12 14 19 25q20 32 20 61q0 54 -46 54q-32 0 -54 -20q-7 -7 -16 -21q-8 14 -14 20q-21 21 -51 21q-43 0 -43 -54
q0 -56 45 -90h-112q-24 17 -35 31q-36 45 -36 107q0 57 37 93.5t94 36.5q53 0 90 -28q12 -9 26 -28z" />
    <glyph glyph-name="uF70D" unicode="&#xf70d;" 
d="M-70 973h-188v89h-106v102h106v89h188v-89h107v-102h-107v-89z" />
    <glyph glyph-name="uF70E" unicode="&#xf70e;" 
d="M-286 973q0 135 47 181q61 60 250 60v-89q-63 0 -83 -30q-15 -22 -15 -81v-41h-199z" />
    <glyph glyph-name="uF70F" unicode="&#xf70f;" horiz-adv-x="1242" 
d="M835 -22q-147 0 -218 47q-88 57 -88 194v325q0 145 -132 145q-130 0 -130 -148v-428h93v-113h-290v416q0 115 82 185q-13 5 -28 8q-35 8 -56 8v87q47 37 135 74q111 47 196 47q327 0 327 -247v-266q0 -97 18 -129q24 -43 102 -43q82 0 109 48q20 35 20 124v495h198v-588
q0 -241 -338 -241z" />
    <glyph glyph-name="uF710" unicode="&#xf710;" 
d="M-446 973q-56 0 -118 29q-73 35 -80 84l136 93q14 -34 69 -58q48 -22 90 -22h375v-126h-472z" />
    <glyph glyph-name="uF711" unicode="&#xf711;" 
d="M-505 926q-73 0 -124 41q-56 44 -56 115q0 69 57 112q52 39 123 39q70 0 120 -40q54 -43 54 -111q0 -71 -53 -115q-49 -41 -121 -41zM-440 1082q0 23 -20.5 39.5t-44.5 16.5q-25 0 -47 -16t-22 -40q0 -59 69 -59q24 0 44.5 17.5t20.5 41.5z" />
    <glyph glyph-name="uF712" unicode="&#xf712;" 
d="M-321 1208v-70h-286q-63 0 -63 -48q-3 -18 15 -36l100 49l69 -39q23 -9 42 -6q34 11 39 47l84 -37q0 -40 -27 -72.5t-66 -32.5t-82 23l-61 33l-85 -41q-27 -13 -54 -13q-51 0 -84 35t-33 86t35.5 86.5t86.5 35.5h370z" />
    <glyph glyph-name="uF713" unicode="&#xf713;" 
d="M-477 1264v207h158v-207h-158z" />
    <glyph glyph-name="uF714" unicode="&#xf714;" 
d="M-407 1471q12 -21 12 -47q0 -33 -19 -56q22 4 37 7q33 7 69 18q128 39 176 96v-137q-80 -54 -202 -80q-37 -8 -151 -8h-91v37q28 28 28 56q-1 7 -1 11q-6 39 -60 39l35 101q30 5 63 5q80 0 104 -42z" />
    <glyph glyph-name="uF715" unicode="&#xf715;" 
d="M-397 1435q11 16 20 23q29 23 74 23q38 0 67 -25.5t29 -63.5q0 -27 -17 -53q21 6 32 13q37 23 56 70l45 -58q-14 -46 -76 -78q-56 -29 -108 -29q-29 0 -61 9q11 13 16 21q17 27 17 50q0 42 -39 42q-25 0 -42 -15q-4 -4 -13 -16q-6 11 -11 15q-17 16 -43 16q-33 0 -33 -42
q0 -52 37 -73h-94q-19 14 -28 25q-29 36 -29 85q0 47 29.5 77t76.5 30q43 0 74 -23q11 -8 21 -23z" />
    <glyph glyph-name="uF716" unicode="&#xf716;" 
d="M-323 1264h-150v84h-99v96h99v87h150v-87h99v-96h-99v-84z" />
    <glyph glyph-name="uF717" unicode="&#xf717;" 
d="M-477 1264q0 110 41 148q53 49 218 49v-74q-7 1 -19 1q-53 0 -70 -35q-12 -25 -12 -89h-158z" />
    <glyph glyph-name="uF718" unicode="&#xf718;" 
d="M-70 -588h-179v110v14q1 8 1 10q0 46 -38 46h-54l34 108h131q50 0 67 -7q38 -16 38 -69v-212z" />
    <glyph glyph-name="uF719" unicode="&#xf719;" 
d="M-510 -491v17q1 12 1 18q0 54 -40 54h-45l48 107h65q105 0 104 -76q0 -7 -1 -18v-13q0 -74 57 -74q63 0 63 63v113h188v-141q0 -98 -75 -135q-52 -26 -163 -26q-68 0 -125 22q-77 31 -77 89z" />
    <glyph glyph-name="uF71A" unicode="&#xf71a;" 
d="M-267 -398q0 41 29.5 69.5t70.5 28.5q42 0 70.5 -28t28.5 -70t-28.5 -71t-70.5 -29q-41 0 -70.5 29.5t-29.5 70.5z" />
    <glyph glyph-name="uF71B" unicode="&#xf71b;" 
d="M-615 1024h615v-1024h-615v1024z" />
    <glyph glyph-name="uF71C" unicode="&#xf71c;" horiz-adv-x="455" 
 />
    <glyph glyph-name="uF71D" unicode="&#xf71d;" horiz-adv-x="455" 
d="M24 -184v180h406v-180h-98v67h-215v-67h-93z" />
  </font>
</defs>
</svg>
